<?xml version="1.0" encoding="UTF-8"?>
<svg id="Layer_1" xmlns="http://www.w3.org/2000/svg" version="1.1" xmlns:xodm="http://www.corel.com/coreldraw/odm/2003" viewBox="0 0 1355.22 438.76">
  <!-- Generator: Adobe Illustrator 29.8.2, SVG Export Plug-In . SVG Version: 2.1.1 Build 3)  -->
  <defs>
    <style>
      .st0 {
        fill: #fff;
      }
    </style>
  </defs>
  <g id="_Слой_x5F_1" data-name="Слой_x5F_1">
    <g id="_2310502456944">
      <path id="path30" class="st0" d="M1292.89,161.6h62.18c-7.86-60.52-52.06-92.33-113.5-92.33s-103.76,32.98-103.76,89.62c0,64.4,53.56,78.75,82.03,84.57,36.71,7.37,72.67,8.15,72.67,40.73,0,22.11-17.98,32.98-43.45,32.98-31.46,0-52.44-16.29-57.69-45.78h-61.43c3.74,63.62,48.32,97.76,113.87,97.76,60.68,0,110.5-28.71,110.5-90.78,0-66.73-57.31-78.75-97.39-84.96-27.35-4.27-57.31-8.15-57.31-38.02,0-20.95,15.36-33.75,41.2-33.75,29.97,0,47.94,17.46,52.07,39.96h0Z"/>
      <polygon id="path32" class="st0" points="1095.86 78.97 1037.05 78.97 1037.05 360.23 1095.86 360.23 1095.86 78.97"/>
      <path id="path26" class="st0" d="M859.5,262.08h76.79c-11.99,30.26-38.96,44.61-70.05,44.61-54.69,0-80.16-43.84-80.16-87.29s23.97-88.45,79.78-88.45c34.09,0,59.56,16.29,69.3,45.39h63.3c-10.86-65.56-66.3-103.19-131.85-103.19-80.91,0-141.59,57.03-141.59,147.03s65.92,145.09,141.21,145.09,132.23-50.04,132.23-128.41v-22.89h-138.97v48.1h0Z"/>
      <path id="path36" class="st0" d="M590.56,73.15c-67.42,0-117.24,43.84-116.87,116.77h60.68c-.75-31.81,18.73-60.91,53.19-60.91,29.97,0,47.57,21.73,47.57,46.55s-17.6,38.79-50.19,53.93c-44.57,20.56-76.41,33.75-109,45.39v85.35h226.99v-57.42h-155.83s.52-.17.77-.25c26.51-8.32,46.42-17.35,70.03-28.07,50.57-23.28,79.41-52.37,79.41-102.03,0-60.91-43.45-99.31-106.75-99.31h0Z"/>
      <path id="path22" class="st0" d="M314.12,261.31c-76.41.39-88.77,48.1-92.89,88.45l-1.87,17.84h-15.36l-1.87-17.84c-4.12-40.35-16.86-88.06-90.65-88.45-12.36-26.38-17.6-47.72-17.6-71.77,0-60.13,47.57-116.38,117.99-116.38s117.24,55.86,117.24,116.77c0,23.66-2.25,45-14.98,71.38h0ZM211.11.22C94.99.22-.15,98.76-.15,219.41s95.14,219.58,211.26,219.58,212.01-98.54,212.01-219.58S328.35.22,211.11.22h0Z"/>
    </g>
  </g>
</svg>