<svg width="396" height="355" viewBox="0 0 396 355" fill="none" xmlns="http://www.w3.org/2000/svg">
<g clip-path="url(#clip0_0_2539)" filter="url(#filter0_d_0_2539)">
<path d="M339.537 164.59L295.347 152.75L241.052 249.368L311.745 268.31C315.982 269.447 320.401 269.74 324.749 269.172C329.098 268.605 333.29 267.188 337.088 265.002C340.885 262.817 344.213 259.906 346.881 256.435C349.55 252.965 351.506 249.003 352.638 244.776L363.182 205.428C365.47 196.89 364.264 187.791 359.829 180.133C355.395 172.474 348.095 166.883 339.537 164.59ZM340.298 239.628C338.864 244.982 335.359 249.547 330.553 252.322C325.747 255.097 320.031 255.855 314.66 254.43L257.518 239.119L304.456 169.96L335.094 178.169C340.458 179.621 345.029 183.135 347.803 187.941C350.578 192.748 351.331 198.453 349.896 203.807L340.298 239.628Z" fill="#96876B" stroke="#121212" stroke-width="2" stroke-miterlimit="10"/>
<path d="M240.731 330.671L23.4021 272.438L10.9766 237.283L269.08 306.442L240.731 330.671Z" fill="#BAA883" stroke="#121212" stroke-width="2" stroke-miterlimit="10"/>
<path d="M82.4157 251.907C98.1226 266.067 116.982 276.291 137.429 281.731C171.656 290.902 208.115 286.135 238.785 268.477C269.456 250.82 291.826 221.72 300.974 187.578L309.304 156.489L82.4157 251.907Z" fill="#BAA883" stroke="#121212" stroke-width="2" stroke-miterlimit="10"/>
<path d="M307.743 156.071L52.4166 87.6562C52.3129 87.6264 52.2027 87.6286 52.1004 87.6624C51.998 87.6963 51.9085 87.7602 51.8433 87.8458C51.7781 87.9315 51.7403 88.0348 51.735 88.1423C51.7296 88.2497 51.757 88.3564 51.8135 88.4481L133.669 229.881C133.743 229.989 133.853 230.067 133.979 230.101C134.106 230.135 134.24 230.122 134.358 230.066L307.808 157.085C307.908 157.039 307.992 156.964 308.048 156.87C308.105 156.775 308.131 156.666 308.124 156.556C308.117 156.446 308.077 156.341 308.009 156.254C307.941 156.168 307.848 156.104 307.743 156.071Z" fill="#BAA883" stroke="#121212" stroke-width="2" stroke-miterlimit="10"/>
<path d="M82.4088 251.926L133.966 230.351L133.914 230.261L82.4088 251.926Z" fill="#E4CE9D" stroke="#121212" stroke-width="2" stroke-miterlimit="10"/>
<path d="M51.8361 88.4868C51.7816 88.3895 51.6989 88.3108 51.5991 88.2609C51.4992 88.211 51.3867 88.1922 51.2761 88.207C51.1655 88.2218 51.0621 88.2695 50.9791 88.3438C50.896 88.4181 50.8373 88.5157 50.8107 88.6238L42.8218 118.439C36.4748 142.092 36.7842 167.041 43.716 190.547C50.6478 214.053 63.934 235.207 82.1158 251.685C82.1974 251.756 82.2972 251.803 82.404 251.82C82.5109 251.837 82.6204 251.824 82.72 251.782L133.318 230.502C133.391 230.471 133.456 230.424 133.51 230.366C133.563 230.308 133.604 230.239 133.629 230.164C133.654 230.089 133.663 230.01 133.656 229.931C133.648 229.852 133.624 229.776 133.586 229.707L51.8361 88.4868Z" fill="#96876B" stroke="#121212" stroke-width="2" stroke-miterlimit="10"/>
<path d="M23.403 272.438L269.081 306.442L240.732 330.671L23.403 272.438Z" fill="#96876B" stroke="#121212" stroke-width="2" stroke-miterlimit="10"/>
<path d="M309.263 156.478C310.661 151.242 310.788 145.747 309.634 140.448C308.481 135.149 306.079 130.2 302.628 126.009C299.177 121.818 294.776 118.506 289.79 116.348C284.803 114.19 279.375 113.248 273.955 113.599C274.074 113.155 274.193 112.71 274.315 112.255C276.367 104.632 276.717 96.6507 275.342 88.8737C273.967 81.0967 270.899 73.7133 266.355 67.2439L51.2718 87.3066L309.263 156.478Z" fill="white" stroke="#121212" stroke-width="2" stroke-miterlimit="10"/>
<path d="M235.955 45.986C226.369 43.4101 216.262 43.5079 206.734 46.2686C197.206 49.0293 188.624 54.3471 181.921 61.6426C177.116 54.0023 170.358 47.775 162.344 43.6016C154.331 39.4282 145.35 37.4594 136.326 37.8977C127.303 38.336 118.562 41.1656 111.004 46.0954C103.445 51.0252 97.3419 57.8771 93.322 65.9461L92.3084 65.6746C83.9805 63.4425 75.1188 64.4319 67.4987 68.4446C59.8786 72.4573 54.0629 79.1969 51.2169 87.3131L266.334 67.2484C259.034 56.8102 248.273 49.279 235.955 45.986Z" fill="#F1F1F1" stroke="#121212" stroke-width="2" stroke-miterlimit="10"/>
<path d="M145.077 252.865C176.221 261.21 208.217 242.79 216.542 211.722C224.866 180.655 206.367 148.704 175.222 140.359C144.078 132.014 112.082 150.434 103.757 181.502C95.4326 212.569 113.932 244.52 145.077 252.865Z" fill="#564C3E"/>
<path d="M193.896 185.435L155.636 175.183C155.413 175.123 155.254 175.189 155.202 175.424C154.983 176.089 154.829 176.774 154.741 177.468C154.734 177.9 154.761 177.961 155.154 178.077C155.873 178.27 193.617 185.382 194.313 185.622C194.313 185.622 194.313 185.622 194.387 185.588C194.236 185.503 194.069 185.45 193.896 185.435Z" fill="#96876B"/>
<path d="M169.284 215.671C169.174 215.393 169.024 215.385 168.839 215.628C168.678 215.826 168.588 216.074 168.586 216.329C168.61 216.848 168.694 217.361 168.839 217.86C169.325 219.292 169.947 220.675 170.698 221.988C171.098 222.724 171.535 223.448 171.973 224.161C172.412 224.875 172.701 225.256 173.064 225.808C173.117 225.869 173.154 225.942 173.173 226.021C173.191 226.099 173.191 226.181 173.171 226.259C173.065 226.654 173.021 227.064 172.928 227.451C172.526 229.153 172.023 230.828 171.675 232.533C171.536 233.255 171.293 233.959 171.1 234.677C171.014 235 171.008 235.02 171.343 235.11L173.816 235.773C174.312 235.906 174.312 235.906 174.45 235.39C174.545 235.01 174.62 234.624 174.673 234.236C174.761 233.501 174.933 232.778 175.042 232.048C175.15 231.319 175.301 230.352 175.432 229.498C175.521 229.165 175.55 228.815 175.591 228.457C175.653 227.943 175.75 227.416 175.84 226.92C175.911 226.677 175.924 226.42 175.878 226.17C175.831 225.921 175.727 225.686 175.573 225.483C174.721 224.367 173.879 223.252 173.094 222.088C172.522 221.22 171.9 220.381 171.385 219.463C170.597 218.25 169.895 216.982 169.284 215.671Z" fill="#96876B"/>
<path d="M150.504 176.094C150.185 176.028 149.863 175.985 149.538 175.966C149.758 176.566 150.168 177.023 150.378 177.578C150.575 178.178 150.715 178.796 150.795 179.423C151.167 178.271 151.354 177.066 151.35 175.855C151.093 176.006 150.802 176.089 150.504 176.094Z" fill="#96876B"/>
<path d="M147.658 176.74C147.603 176.731 147.547 176.734 147.493 176.75C147.44 176.765 147.391 176.793 147.351 176.831C147.071 177.012 146.754 177.127 146.423 177.167C146.093 177.208 145.757 177.174 145.441 177.067C145.147 176.989 144.898 176.824 144.607 176.735L141.109 175.722C138.145 174.863 135.139 174.123 132.159 173.324L131.794 173.227C132.955 173.841 134.161 174.327 135.362 174.833C136.562 175.338 137.513 175.723 138.609 176.093C139.705 176.462 140.48 176.854 141.423 177.183C141.738 177.267 142.048 177.404 142.352 177.529C142.948 177.776 143.539 178.042 144.139 178.279C144.69 178.478 145.169 178.836 145.514 179.308C145.973 179.975 146.198 180.775 146.154 181.582C146.179 183.03 146.181 184.482 146.216 185.933C146.252 186.256 146.311 186.576 146.394 186.891L146.485 186.915L147.064 181.837C147.267 180.103 147.574 178.43 147.658 176.74Z" fill="#96876B"/>
<path d="M208.36 208.848C207.569 208.636 206.779 208.424 206.023 208.124C205.267 207.824 204.472 207.709 203.713 207.419C202.955 207.129 201.92 206.938 201.045 206.595C200.17 206.252 198.97 205.985 197.935 205.675C196.329 205.18 194.691 204.806 193.11 204.263C192.866 204.198 192.613 204.13 192.37 204.065C191.34 203.854 190.309 203.361 189.245 203.119C189.133 203.089 188.968 203.099 188.986 202.909C189.004 202.719 189.159 202.749 189.279 202.706C189.642 202.642 190.011 202.628 190.377 202.664C191.435 202.684 192.493 202.605 193.536 202.427C193.858 202.359 194.189 202.341 194.517 202.375C195.113 202.426 195.705 202.523 196.286 202.665C196.359 202.69 196.433 202.71 196.509 202.725C197.007 202.772 197.52 202.801 198.008 202.888C198.495 202.975 199.232 203.021 199.831 203.095L202.12 203.394L203.717 203.594C204.507 203.687 205.304 203.792 206.1 203.864C206.567 203.903 206.981 204.101 207.447 204.106C208.077 204.188 208.694 204.235 209.319 204.337C209.584 204.395 209.861 204.349 210.092 204.208C210.308 204.049 210.192 203.834 210.244 203.642C210.322 202.904 210.322 202.904 209.614 202.747L209.341 202.674C208.905 202.557 208.439 202.552 207.995 202.465C207.49 202.345 206.978 202.252 206.463 202.185C205.549 202.07 204.674 201.846 203.765 201.711C202.857 201.576 202.24 201.486 201.486 201.339C201.172 201.255 200.834 201.218 200.509 201.175C200.184 201.131 199.608 201.052 199.158 200.986C198.709 200.92 198.291 200.818 197.856 200.778C197.422 200.737 197.23 200.48 197.469 200.035C197.708 199.589 197.948 199.22 198.138 198.795C198.431 198.147 198.563 198.02 199.27 198.014C201.161 198.012 203.044 198.039 204.94 198.017C206.587 197.992 208.203 198.002 209.895 198.011C210.74 198.021 210.741 198.097 210.754 197.158C210.765 196.63 210.68 196.542 210.154 196.477L209.968 196.481C209.372 196.517 208.768 196.42 208.175 196.402C207.583 196.384 207.105 196.343 206.532 196.33C204.642 196.29 202.758 196.229 200.866 196.112C200.6 196.117 200.334 196.09 200.074 196.03C199.739 195.94 199.661 195.746 199.887 195.471C200.44 194.784 200.893 194.022 201.231 193.209C201.277 193.098 201.353 193.002 201.45 192.933C201.548 192.863 201.663 192.822 201.782 192.814C202.249 192.777 202.716 192.696 203.187 192.638C204.108 192.527 205.043 192.442 205.962 192.298C207.273 192.108 208.594 191.92 209.902 191.783C210.361 191.732 210.487 191.625 210.5 191.173C210.505 190.969 210.487 190.764 210.446 190.563C210.375 190.219 210.323 190.172 209.958 190.194C209.398 190.217 208.863 190.226 208.269 190.294C206.66 190.502 205.033 190.575 203.417 190.728L202.609 190.782C202.576 190.459 202.75 190.256 202.899 190.025C203.329 189.313 203.684 188.559 203.959 187.774C204.229 186.763 204.23 186.763 205.298 186.507C206.189 186.302 207.068 186.06 207.955 185.832L209.057 185.531C209.399 185.428 209.452 185.355 209.409 184.986C209.392 184.766 209.352 184.548 209.29 184.337C209.283 184.273 209.263 184.211 209.229 184.155C209.196 184.1 209.151 184.053 209.098 184.017C209.044 183.981 208.983 183.957 208.92 183.947C208.856 183.937 208.791 183.941 208.729 183.959C208.6 183.969 208.474 183.993 208.351 184.031C207.044 184.45 205.67 184.591 204.329 184.893C204.122 184.935 203.985 184.92 203.938 184.691C203.89 184.461 203.856 184.549 203.832 184.478C203.541 183.707 203.028 183.038 202.359 182.555C202.014 182.353 201.697 182.108 201.414 181.825L204.393 180.641L207.325 179.465C207.387 179.446 207.444 179.414 207.492 179.371C207.54 179.329 207.578 179.276 207.604 179.218C207.63 179.159 207.643 179.095 207.643 179.031C207.642 178.967 207.628 178.903 207.6 178.845C207.569 178.761 207.514 178.681 207.485 178.587C207.249 177.927 207.245 177.861 206.444 178.134L203.685 179.107C203.385 179.211 203.063 179.277 202.779 179.406C202.319 179.611 201.847 179.788 201.366 179.938C200.483 180.232 199.605 180.55 198.739 180.86C198.478 180.976 198.184 180.997 197.909 180.919C196.753 180.609 195.588 180.297 194.422 179.985L194.149 179.911C193.987 179.868 193.999 179.741 194.127 179.667C194.256 179.593 194.504 179.519 194.684 179.415C196.877 178.161 199.056 176.881 201.29 175.681L202.239 175.177C202.965 174.818 203.644 174.394 204.348 173.997C205.052 173.6 205.189 173.453 204.79 172.631L204.745 172.554C204.506 172.23 204.258 172.142 203.985 172.35C203.869 172.434 203.744 172.506 203.613 172.565C202.661 173.036 201.705 173.484 200.78 173.973C200.262 174.246 199.739 174.496 199.223 174.758C198.707 175.021 198.445 175.189 198.047 175.375C197.089 175.79 196.197 176.321 195.235 176.789C194.715 177.029 194.242 177.335 193.731 177.578C192.826 177.996 191.946 178.443 191.063 178.9C190.882 178.999 190.669 179.024 190.469 178.969L188.442 178.425C188.341 178.398 188.219 178.366 188.172 178.256C188.233 178.129 188.33 178.023 188.45 177.951L189.807 176.938C190.32 176.566 190.815 176.179 191.332 175.83C192.05 175.339 192.75 174.834 193.443 174.315C194.136 173.796 194.806 173.282 195.537 172.785L197.7 171.197C198.231 170.798 198.731 170.39 199.287 170.019C200.136 169.487 200.869 168.817 201.715 168.296C201.744 168.282 201.769 168.263 201.79 168.238C201.81 168.214 201.825 168.185 201.833 168.154C201.841 168.124 201.843 168.091 201.837 168.06C201.832 168.029 201.82 167.999 201.802 167.972C201.68 167.681 201.514 167.41 201.311 167.169C201.27 167.109 201.217 167.059 201.154 167.023C201.091 166.987 201.021 166.966 200.949 166.961C200.877 166.956 200.804 166.968 200.737 166.996C200.671 167.024 200.611 167.066 200.563 167.121C200.454 167.21 200.338 167.291 200.216 167.363C199.607 167.731 199.063 168.138 198.451 168.559C197.561 169.123 196.736 169.769 195.803 170.331C195.15 170.741 194.492 171.172 193.881 171.626C193.271 172.08 192.207 172.684 191.402 173.259C190.825 173.668 190.229 174.028 189.629 174.442L187.568 175.851C186.997 176.239 186.395 176.62 185.861 177.03C185.669 177.228 185.422 177.365 185.151 177.422C184.88 177.478 184.598 177.453 184.342 177.349C184.011 177.233 183.673 177.142 183.328 177.077C183.316 177.038 183.314 176.996 183.325 176.957C183.335 176.917 183.357 176.882 183.388 176.855C183.763 176.511 184.135 176.177 184.499 175.83L187.986 172.506L190.907 169.713C191.491 169.154 192.048 168.577 192.645 168.011C194.347 166.441 196.017 164.83 197.692 163.241C197.85 163.099 197.834 162.997 197.798 162.847C197.603 162.562 197.362 162.31 197.085 162.103C197.061 162.065 197.029 162.034 196.99 162.013C196.95 161.992 196.906 161.981 196.862 161.982C196.817 161.984 196.774 161.997 196.736 162.02C196.698 162.044 196.668 162.077 196.647 162.116C196.494 162.299 196.325 162.468 196.142 162.62C195.11 163.514 194.06 164.392 193.05 165.324C192.04 166.256 191.194 166.94 190.232 167.733C188.915 168.876 187.649 170.075 186.295 171.197C184.94 172.318 183.825 173.439 182.515 174.518C181.911 175.028 181.325 175.554 180.739 176.08C180.612 176.187 180.501 176.319 180.326 176.283C179.925 176.234 179.532 176.129 179.16 175.971C179.456 175.638 179.71 175.338 179.972 175.051C180.843 174.027 181.624 172.936 182.511 171.938C183.398 170.941 184.123 169.976 184.915 169.007C185.707 168.038 186.544 166.983 187.4 165.977C187.901 165.364 188.427 164.779 188.9 164.147C189.623 163.192 190.472 162.336 191.165 161.373C191.573 160.822 192.052 160.332 192.475 159.806C192.714 159.523 192.948 159.218 193.162 158.907C193.375 158.595 193.265 158.522 193.08 158.321L192.763 158.041C192.31 157.584 192.257 157.58 191.839 158.043L191.746 158.148C190.191 159.899 188.636 161.649 187.08 163.399C186.303 164.275 185.506 165.221 184.667 166.123L176.912 174.794C176.43 175.337 176.427 175.347 175.744 175.099L175.654 174.988C176.14 174.186 176.632 173.365 177.134 172.546C177.821 171.44 178.567 170.361 179.226 169.238C179.695 168.421 180.194 167.612 180.739 166.837C181.487 165.747 182.114 164.583 182.834 163.475C183.831 161.944 184.753 160.37 185.739 158.836C186.541 157.588 187.312 156.331 188.103 155.081C188.141 154.939 188.268 154.832 188.209 154.686C188.13 154.542 188.023 154.415 187.893 154.313C187.763 154.211 187.614 154.137 187.455 154.094C187.336 154.054 187.207 154.053 187.088 154.091C186.968 154.129 186.864 154.204 186.79 154.306C186.614 154.464 186.468 154.653 186.359 154.862C186.188 155.174 185.985 155.488 185.784 155.792C185.427 156.314 185.069 156.836 184.695 157.342C184.32 157.849 183.798 158.662 183.364 159.348C182.931 160.034 182.528 160.565 182.093 161.174C181.658 161.784 181.175 162.532 180.721 163.213C179.839 164.558 178.925 165.863 177.995 167.185C176.823 168.962 175.606 170.706 174.41 172.455L173.193 174.199C173.156 174.245 173.11 174.284 173.058 174.312C173.006 174.341 172.948 174.359 172.889 174.365C172.83 174.371 172.77 174.366 172.713 174.349C172.655 174.332 172.602 174.304 172.556 174.266C172.375 174.131 172.502 173.981 172.54 173.839C172.546 173.794 172.558 173.75 172.575 173.708C172.778 173.275 172.958 172.846 173.179 172.429C173.521 171.762 173.807 171.058 174.09 170.365C174.241 170.004 174.433 169.655 174.594 169.297C175.023 168.383 175.446 167.455 175.878 166.531C176.31 165.607 176.696 164.735 177.151 163.849C177.419 163.335 177.591 162.775 177.838 162.256C178.086 161.737 178.475 160.931 178.787 160.256C179.296 159.168 179.817 158.072 180.326 156.984L181.347 154.755C181.687 154.055 181.941 153.31 182.293 152.603C182.445 152.363 182.559 152.101 182.631 151.826C182.666 151.689 182.646 151.543 182.576 151.42C182.506 151.296 182.391 151.204 182.255 151.162L181.931 151.075C181.424 150.94 181.263 151.016 181.039 151.486C180.633 152.353 180.255 153.238 179.821 154.086C178.712 156.238 177.588 158.364 176.517 160.537C175.446 162.709 174.347 164.582 173.397 166.668C172.683 168.2 171.832 169.673 171.1 171.189C170.74 171.883 170.339 172.567 170.027 173.285C169.954 173.558 169.885 173.572 169.614 173.489C169.343 173.405 169.33 173.413 169.399 173.074C169.489 172.734 169.611 172.404 169.762 172.087C169.935 171.44 170.108 170.793 170.355 170.155C170.602 169.517 170.729 168.76 171.017 168.089C171.306 167.419 171.343 166.876 171.589 166.281C171.835 165.686 171.952 164.926 172.232 164.286C172.512 163.646 172.618 163.089 172.801 162.488C173.072 161.477 173.474 160.501 173.754 159.417C173.941 158.719 174.128 158.022 174.376 157.34C174.646 156.329 175.042 155.298 175.329 154.269C175.556 153.42 175.926 152.609 176.103 151.746L176.127 151.655C176.44 150.894 176.683 150.107 176.855 149.303C176.882 149.238 176.887 149.166 176.867 149.098C176.848 149.03 176.806 148.97 176.749 148.928C176.095 148.45 175.519 148.534 175.183 149.3C174.847 150.066 174.715 150.561 174.501 151.197C174.206 151.912 173.965 152.648 173.78 153.399C173.772 153.511 173.743 153.621 173.694 153.723C173.443 154.264 173.242 154.826 173.091 155.403C172.877 155.92 172.69 156.455 172.513 156.993C172.394 157.418 172.25 157.835 172.081 158.243C171.751 158.988 171.499 159.766 171.219 160.526C171.036 161.007 170.847 161.509 170.676 161.984C170.582 162.35 170.457 162.708 170.303 163.054C170.079 163.538 169.894 164.039 169.749 164.553C169.496 165.13 169.292 165.728 169.14 166.34C169.134 166.403 169.117 166.464 169.091 166.522C168.908 167.004 168.688 167.498 168.551 167.97C168.413 168.443 168.216 168.856 168.056 169.29C167.803 169.991 167.504 170.659 167.322 171.379C167.249 171.652 167.173 171.935 167.1 172.208C167.058 172.361 166.987 172.504 166.89 172.629C166.773 172.782 166.632 172.701 166.5 172.665C166.368 172.63 166.352 172.528 166.364 172.401C166.438 171.641 166.658 170.898 166.785 170.141C166.929 169.605 166.945 169.1 167.081 168.508C167.157 168.225 167.191 167.898 167.231 167.584C167.26 167.145 167.326 166.71 167.428 166.282C167.539 165.794 167.625 165.299 167.684 164.801C167.819 164.014 167.966 163.219 168.162 162.448C168.358 161.677 168.553 160.787 168.689 159.956C168.824 159.125 168.991 158.26 169.092 157.398C169.149 156.98 169.311 156.579 169.318 156.148C169.366 155.665 169.44 155.186 169.54 154.712C169.678 154.196 169.719 153.676 169.833 153.132C170.022 152.425 170.05 151.674 170.242 150.956C170.272 150.885 170.292 150.81 170.302 150.733C170.337 150.232 170.419 149.735 170.547 149.249C170.672 148.784 170.675 148.287 170.802 147.812C170.93 147.336 170.762 147.313 170.43 147.213L169.893 147.07C169.569 146.983 169.425 147.074 169.32 147.382C169.25 147.69 169.196 148.001 169.158 148.314C168.832 149.527 168.599 150.765 168.365 152.002C168.208 152.589 168.048 153.185 167.969 153.803C167.89 154.422 167.639 155.037 167.572 155.691C167.505 156.345 167.231 156.965 167.151 157.626C167.072 158.287 166.826 158.839 166.745 159.468C166.663 160.096 166.371 160.863 166.285 161.588C166.2 162.312 165.96 162.801 165.879 163.429C165.732 164.3 165.482 165.154 165.285 166.011C164.995 167.093 164.88 168.211 164.539 169.279C164.521 169.306 164.513 169.338 164.515 169.37C164.415 170.137 164.241 170.892 163.997 171.626C163.916 171.93 163.737 171.99 163.475 171.833C163.213 171.676 163.338 171.612 163.346 171.463C163.431 170.174 163.449 168.89 163.554 167.606C163.761 165.17 163.702 162.716 163.963 160.283C164.051 159.385 164.03 158.491 164.085 157.596C164.176 155.919 164.201 154.246 164.348 152.562C164.495 150.879 164.523 148.99 164.618 147.216C164.664 146.232 164.478 146.442 163.796 146.227L163.655 146.189C163.577 146.174 163.497 146.175 163.42 146.194C163.344 146.213 163.272 146.249 163.211 146.299C163.15 146.349 163.101 146.412 163.067 146.483C163.033 146.554 163.015 146.632 163.015 146.711C162.956 146.934 162.987 147.18 162.968 147.414L162.672 150.585C162.595 151.399 162.498 152.207 162.465 153.022C162.434 153.664 162.276 154.293 162.235 154.933L162.127 156.431C162.028 157.489 161.941 158.462 161.853 159.479C161.766 160.496 161.674 161.446 161.604 162.435C161.569 163.011 161.438 163.583 161.413 164.161C161.389 164.74 161.28 165.632 161.225 166.365C161.137 167.425 161.052 168.388 160.985 169.41C160.962 169.982 160.896 170.551 160.789 171.113C160.065 171.017 160.058 171.004 160.018 170.343C159.977 169.682 159.969 169.106 159.926 168.498C159.882 167.89 159.805 167.122 159.743 166.423C159.662 165.469 159.627 164.506 159.555 163.555C159.484 162.604 159.416 161.481 159.3 160.453C159.21 159.735 159.242 159.007 159.163 158.249C159.05 157.211 158.966 156.148 158.919 155.106C158.89 154.524 158.851 153.939 158.81 153.365C158.739 152.414 158.609 151.479 158.591 150.532C158.558 149.277 158.362 148.022 158.309 146.761C158.291 146.301 158.12 146.169 157.642 146.171L157.41 146.184C156.765 146.239 156.685 146.337 156.727 146.988C156.798 148.307 156.868 149.626 156.892 150.954C156.923 152.946 157.094 154.942 157.103 156.938C157.108 157.731 157.202 158.514 157.23 159.302C157.301 161.066 157.371 162.829 157.411 164.584C157.451 166.34 157.561 168.081 157.604 169.826C157.612 169.902 157.61 169.978 157.597 170.052C157.596 170.075 157.589 170.098 157.579 170.119C157.568 170.139 157.553 170.157 157.535 170.172C157.516 170.186 157.495 170.197 157.473 170.203C157.45 170.209 157.427 170.21 157.404 170.206C157.307 170.22 157.208 170.214 157.114 170.188C157.02 170.163 156.932 170.118 156.855 170.057C156.779 169.996 156.716 169.92 156.67 169.833C156.625 169.747 156.597 169.652 156.59 169.555L156.543 169.325L152.599 150.151C152.396 149.165 152.214 148.184 152.024 147.19C152.023 147.147 152.014 147.105 151.996 147.066C151.978 147.026 151.952 146.991 151.92 146.962C151.888 146.934 151.851 146.911 151.81 146.898C151.769 146.884 151.726 146.879 151.683 146.882C151.336 146.871 150.991 146.938 150.674 147.078C150.636 147.088 150.6 147.105 150.569 147.129C150.538 147.154 150.512 147.184 150.494 147.219C150.475 147.254 150.464 147.292 150.461 147.332C150.459 147.371 150.464 147.411 150.477 147.448C150.728 148.501 150.804 149.594 151.005 150.667C151.207 151.739 151.403 152.994 151.6 154.163C151.797 155.332 152.026 156.629 152.187 157.853L152.612 160.319C152.855 161.846 153.09 163.361 153.353 164.851C153.55 166.064 153.79 167.277 153.966 168.483C154.099 169.364 154.086 169.372 153.168 169.353C153.098 169.354 153.03 169.331 152.974 169.288C152.919 169.246 152.879 169.187 152.861 169.119C152.611 168.582 152.396 168.028 152.219 167.462C151.602 165.629 150.978 163.796 150.346 161.965C149.912 160.668 149.477 159.37 149.022 158.067C148.327 156.082 147.68 154.077 146.992 152.105C146.642 151.058 146.234 150.027 145.941 148.974C145.717 148.188 145.675 148.426 145.046 148.463C144.937 148.485 144.831 148.522 144.733 148.574C144.651 148.59 144.573 148.624 144.506 148.676C144.439 148.727 144.386 148.793 144.349 148.869C144.313 148.945 144.296 149.028 144.298 149.112C144.3 149.196 144.322 149.278 144.362 149.352C144.524 149.84 144.657 150.32 144.799 150.802C145.306 152.477 145.818 154.149 146.333 155.819C146.81 157.366 147.211 158.947 147.702 160.52C148.119 161.802 148.462 163.118 148.835 164.4C149.209 165.681 149.678 167.215 150.096 168.617L150.513 170.018C150.559 170.171 150.635 170.332 150.511 170.472C150.386 170.612 150.182 170.85 150 171.04C149.819 171.23 149.834 171.093 149.777 170.98L149.636 170.736C149.355 170.206 149.096 169.671 148.84 169.125C148.474 168.344 148.048 167.58 147.669 166.807C147.448 166.336 147.188 165.887 146.956 165.413C146.547 164.588 146.156 163.736 145.735 162.919C145.433 162.339 145.168 161.748 144.9 161.167C144.632 160.586 144.271 159.828 143.938 159.165C143.605 158.501 143.172 157.724 142.841 156.974C142.261 155.735 141.619 154.48 140.998 153.23C140.611 152.444 140.189 151.669 139.843 150.851C139.837 150.821 139.824 150.793 139.806 150.768C139.788 150.743 139.765 150.723 139.738 150.707C139.711 150.692 139.682 150.682 139.651 150.679C139.621 150.676 139.59 150.679 139.561 150.688C139.263 150.743 138.981 150.859 138.731 151.029C138.317 151.276 138.296 151.314 138.541 151.737C138.915 152.411 139.162 153.15 139.477 153.841C139.791 154.532 140.141 155.416 140.5 156.185C140.859 156.953 141.287 158.032 141.74 158.933C142.058 159.571 142.305 160.233 142.587 160.883C143.019 161.866 143.453 162.838 143.875 163.818C144.297 164.798 144.609 165.456 144.945 166.272C145.194 166.881 145.518 167.455 145.778 168.066C146.038 168.678 146.308 169.292 146.573 169.883C146.838 170.474 147.092 171.03 147.339 171.606C147.386 171.716 147.44 171.838 147.321 171.958C147.158 172.058 146.969 172.109 146.777 172.104C146.586 172.099 146.4 172.038 146.242 171.929C146.115 171.788 145.999 171.638 145.896 171.479C145.288 170.503 144.642 169.55 143.996 168.597C143.35 167.643 142.757 166.693 142.128 165.756C141.5 164.818 140.821 163.704 140.173 162.674C140.139 162.606 140.098 162.54 140.052 162.479C139.451 161.679 138.928 160.835 138.405 159.99C137.881 159.146 137.346 158.428 136.865 157.627C136.22 156.587 135.486 155.6 134.859 154.532C134.796 154.423 134.726 154.318 134.651 154.216C134.107 153.529 134.107 153.529 133.341 153.995C132.969 154.21 132.912 154.422 133.122 154.814C133.332 155.207 133.638 155.646 133.878 156.046C134.471 156.953 134.959 157.929 135.563 158.839C136.33 160.03 136.977 161.385 137.829 162.545C138.495 163.547 139.058 164.608 139.685 165.632C140.661 167.259 141.65 168.878 142.603 170.51C142.688 170.641 142.808 170.76 142.782 170.937C142.756 171.114 142.481 170.965 142.327 170.934L140.796 170.524C140.424 170.387 140.111 170.127 139.907 169.788C139.366 169.09 138.79 168.404 138.215 167.752C136.718 166.04 135.261 164.306 133.792 162.569C133.263 161.95 132.708 161.346 132.171 160.714C131.262 159.647 130.376 158.576 129.47 157.498C129.08 157.047 128.836 157.025 128.41 157.399C128.334 157.455 128.266 157.52 128.206 157.593C127.9 157.923 127.893 158.073 128.172 158.408C129.347 159.835 130.492 161.279 131.606 162.741C133.045 164.589 134.547 166.401 135.985 168.249C136.19 168.499 136.476 168.727 136.532 169.089C136.343 169.161 136.134 169.155 135.949 169.074L132.047 168.028C131.802 167.967 131.576 167.843 131.394 167.669L128.974 165.471L124.731 161.603C124.344 161.261 124.179 161.271 123.809 161.638L123.622 161.848C123.306 162.218 123.293 162.388 123.646 162.732L126.733 165.726C127.073 166.043 127.388 166.384 127.675 166.748C127.509 166.787 127.334 166.77 127.177 166.702L124.968 166.11C124.623 166.017 124.269 165.922 123.936 165.909C123.499 165.843 123.054 165.867 122.627 165.981C122.201 166.094 121.802 166.293 121.456 166.567C121.395 166.616 121.319 166.645 121.24 166.649C121.161 166.653 121.082 166.632 121.016 166.589C120.822 166.462 120.631 166.324 120.424 166.203C120.385 166.168 120.338 166.143 120.288 166.128C120.237 166.114 120.184 166.112 120.133 166.121C120.081 166.13 120.032 166.15 119.99 166.181C119.947 166.212 119.913 166.252 119.888 166.298C119.764 166.516 119.625 166.725 119.471 166.923C119.407 167.006 119.378 167.109 119.388 167.213C119.399 167.316 119.449 167.412 119.528 167.48C119.606 167.557 119.694 167.625 119.789 167.68C120.189 167.972 120.206 167.987 120.069 168.46C119.813 169.403 119.932 170.41 120.403 171.269C120.752 172.028 121.146 172.767 121.581 173.481C121.668 173.602 121.788 173.72 121.752 173.895C121.716 174.07 121.61 173.857 121.539 173.838C120.238 173.099 118.905 172.439 117.594 171.697C116.834 171.288 116.597 171.365 116.167 172.117C115.97 172.487 116.021 172.663 116.389 172.87C117.604 173.564 118.841 174.22 120.05 174.935L122.679 176.517C122.793 176.573 122.892 176.655 122.971 176.754C123.049 176.854 123.105 176.97 123.133 177.093C123.298 177.801 123.58 178.477 123.966 179.094C124.204 179.461 124.301 179.909 124.614 180.242C124.685 180.261 124.677 180.411 124.706 180.506C124.735 180.6 124.677 180.899 124.438 180.9C124.324 180.896 124.213 180.867 124.113 180.813C123.425 180.468 122.712 180.175 121.98 179.938C121.665 179.853 121.341 179.766 121.051 179.591C120.52 179.349 119.973 179.141 119.415 178.969C119.077 178.876 118.744 178.765 118.418 178.636C118.102 178.478 117.774 178.346 117.437 178.243C116.963 178.122 116.502 177.955 116.06 177.745C115.72 177.654 115.389 177.529 115.074 177.372C114.814 177.254 114.537 177.18 114.253 177.152C113.989 177.081 113.843 177.183 113.749 177.451C113.699 177.597 113.639 177.74 113.569 177.879C113.381 178.219 113.434 178.385 113.775 178.573C114.605 178.983 115.458 179.346 116.33 179.659C116.959 179.903 117.602 180.141 118.216 180.403C118.83 180.665 119.56 181.023 120.248 181.294C120.935 181.565 121.63 181.892 122.322 182.186L125.653 183.62C126.295 183.852 126.87 184.237 127.33 184.741C127.754 185.267 128.116 185.862 128.478 186.414C128.548 186.52 128.625 186.638 128.536 186.766C128.448 186.894 128.305 186.899 128.163 186.861C127.626 186.717 127.15 186.589 126.543 186.502C125.432 186.27 124.354 185.916 123.222 185.721C122.09 185.526 121.195 185.178 120.16 184.987C119.436 184.891 118.711 184.675 117.997 184.505C116.618 184.136 115.204 183.941 113.842 183.511C113.467 183.41 113.082 183.307 112.697 183.204C112.485 183.146 112.263 183.131 112.046 183.16C111.993 183.158 111.942 183.167 111.893 183.186C111.844 183.206 111.8 183.234 111.763 183.271C111.726 183.307 111.696 183.351 111.676 183.399C111.657 183.448 111.647 183.499 111.647 183.551C111.663 183.859 111.365 184.202 111.714 184.479L111.765 184.493C112.018 184.561 112.247 184.72 112.498 184.798C113.612 185.097 114.727 185.395 115.823 185.765C118.431 186.572 121.104 187.18 123.725 187.98C125.824 188.645 127.957 189.195 130.116 189.627C131.082 189.893 131.903 190.53 132.4 191.399C132.263 191.466 132.109 191.492 131.956 191.475C130.95 191.444 129.947 191.338 128.956 191.158C128.021 191.038 127.084 190.971 126.149 190.85C125.215 190.73 124.277 190.663 123.339 190.553C122.633 190.472 121.932 190.414 121.223 190.343C120.514 190.272 119.869 190.208 119.211 190.108C118.554 190.007 117.583 189.899 116.773 189.801C115.722 189.671 114.646 189.632 113.597 189.492C112.548 189.352 111.836 189.334 110.968 189.21C110.704 189.139 110.498 189.301 110.472 189.521C110.445 189.742 110.425 190.061 110.42 190.32C110.416 190.579 110.498 190.72 110.807 190.825C111.006 190.859 111.209 190.877 111.411 190.878C111.989 191.033 112.595 191.044 113.186 191.148C113.975 191.284 114.768 191.366 115.56 191.491L116.499 191.635L118.594 191.925L120.412 192.196C121.038 192.244 121.662 192.325 122.281 192.436C123.365 192.727 124.483 192.81 125.585 192.997C125.899 193.081 126.227 193.114 126.554 193.148C127.261 193.229 127.961 193.33 128.649 193.438L130.47 193.699C131.257 193.801 132.062 193.876 132.857 193.992C133.652 194.107 134.434 194.23 135.228 194.345C135.322 194.357 135.412 194.389 135.493 194.439C135.573 194.488 135.642 194.554 135.694 194.633C135.836 194.833 135.791 194.962 135.546 194.983C135.341 195.008 135.134 195.021 134.927 195.023L131.241 195.119C130.311 195.141 129.377 195.14 128.45 195.195C127.523 195.25 126.626 195.193 125.704 195.228C124.782 195.263 123.514 195.292 122.419 195.323C121.325 195.355 119.989 195.312 118.772 195.354C117.555 195.396 116.132 195.437 114.809 195.43C113.725 195.421 112.571 195.469 111.456 195.496C111.138 195.508 110.825 195.5 110.504 195.522C110.183 195.545 110.075 195.581 110.059 195.804C110.004 196.032 109.993 196.267 110.025 196.499C110.037 196.62 110.094 196.732 110.185 196.813C110.276 196.894 110.395 196.937 110.516 196.934L111.509 196.962C112.987 197 114.462 197.006 115.945 197.067C118.035 197.172 120.138 197.107 122.223 197.232C124.936 197.363 127.627 197.336 130.391 197.438C132.423 197.516 134.463 197.445 136.483 197.607C136.686 197.661 136.921 197.594 137.145 197.611C137.202 197.604 137.259 197.62 137.304 197.654C137.35 197.689 137.38 197.739 137.389 197.796C137.399 197.961 137.251 197.943 137.149 197.959L135.463 198.212C134.405 198.351 133.349 198.523 132.28 198.659C130.839 198.847 129.412 199.104 127.976 199.315C126.54 199.527 125.334 199.691 124.038 199.864C122.502 200.124 120.942 200.27 119.411 200.553C118.27 200.756 117.161 200.839 116.015 201.062C115.351 201.188 114.671 201.255 114.005 201.347L110.72 201.811C110.483 201.845 110.389 201.95 110.414 202.184C110.421 202.436 110.452 202.688 110.506 202.935C110.556 203.154 110.656 203.224 110.914 203.196L115.807 202.773L118.743 202.476C120.351 202.354 121.945 202.12 123.541 201.963C124.833 201.843 126.113 201.688 127.403 201.578C128.692 201.468 129.881 201.289 131.117 201.175C132.664 201.037 134.182 200.805 135.726 200.677C136.279 200.641 136.845 200.554 137.373 200.49C137.505 200.525 137.689 200.487 137.706 200.666C137.724 200.844 137.575 200.869 137.437 200.897C137.3 200.925 137.037 200.974 136.837 201.029C135.538 201.417 134.23 201.76 132.91 202.144C130.727 202.751 128.549 203.381 126.363 203.998L121.532 205.326L117.615 206.443C116.575 206.717 115.53 206.968 114.505 207.268C113.712 207.51 112.892 207.692 112.094 207.955C111.954 207.998 111.828 208.077 111.728 208.182C111.627 208.288 111.555 208.418 111.519 208.559C111.473 208.667 111.46 208.786 111.481 208.901C111.503 209.016 111.558 209.123 111.64 209.207C111.721 209.291 111.826 209.35 111.941 209.375C112.056 209.4 112.175 209.391 112.285 209.349C112.614 209.257 112.951 209.174 113.296 209.1L119.56 207.777L119.836 207.721C120.825 207.477 121.8 207.164 122.787 207.006C124.068 206.764 125.329 206.397 126.613 206.145C127.338 205.993 128.052 205.762 128.769 205.639C130.289 205.321 131.781 204.94 133.288 204.585L137.941 203.437C138.062 203.4 138.19 203.397 138.313 203.429C138.384 203.448 138.475 203.472 138.471 203.569C138.467 203.665 138.441 203.68 138.349 203.698C137.626 204.003 136.908 204.331 136.171 204.61C135.052 205.058 133.927 205.526 132.812 205.997C131.698 206.467 130.596 206.888 129.507 207.387C128.417 207.886 127.052 208.441 125.746 208.936C123.874 209.681 122.069 210.497 120.166 211.234C118.567 211.889 116.965 212.478 115.324 213.089C114.678 213.35 114.091 213.637 113.419 213.912C113.086 214.061 113.02 214.228 113.142 214.542L113.315 214.989C113.479 215.434 113.61 215.513 114.05 215.327C115.431 214.754 116.886 214.353 118.282 213.806C119.145 213.463 120.022 213.189 120.91 212.874C122.356 212.384 123.802 211.894 125.234 211.334C125.815 211.111 126.429 210.929 127.035 210.734C126.996 210.947 126.94 211.156 126.867 211.36C126.502 212.075 126.235 212.827 125.897 213.56C125.783 213.952 125.531 214.288 125.187 214.508C123.683 215.297 122.255 216.247 120.719 216.995C119.883 217.399 119.108 217.939 118.264 218.331C117.615 218.645 116.98 219.07 116.379 219.408C115.778 219.745 115.534 220.048 116 220.823L116.076 220.941C116.104 220.99 116.141 221.032 116.185 221.066C116.229 221.1 116.279 221.125 116.333 221.139C116.387 221.154 116.443 221.157 116.498 221.15C116.553 221.143 116.606 221.124 116.654 221.096C117.05 220.877 117.492 220.725 117.903 220.488C118.362 220.228 118.835 219.993 119.32 219.784L122.122 218.368L124.025 217.426C124.076 217.439 124.141 217.359 124.204 217.408C124.266 217.458 124.252 217.551 124.223 217.62C123.926 218.201 123.695 218.822 123.425 219.421C122.929 220.545 122.435 221.659 121.968 222.791C121.877 223.008 121.737 223.2 121.557 223.353C120.779 223.946 119.996 224.516 119.203 225.084C118.856 225.327 118.841 225.421 119.016 225.782C119.077 225.926 119.157 226.061 119.256 226.182C119.66 226.583 119.721 226.718 120.219 226.277C120.257 226.247 120.292 226.212 120.323 226.175C120.403 226.314 120.512 226.435 120.642 226.53C120.772 226.624 120.92 226.691 121.077 226.724L122.7 227.235C123.379 227.417 124.034 227.69 124.695 227.899C125.06 227.997 125.086 228.102 124.822 228.356L123.168 229.907C122.693 230.343 122.683 230.503 123.11 230.975C123.203 231.075 123.304 231.146 123.399 231.236C123.743 231.534 123.779 231.522 124.113 231.167C124.22 231.053 124.336 230.946 124.459 230.848C125.138 230.261 125.851 229.705 126.495 229.086C126.854 228.76 127.171 228.509 127.636 228.882C128.496 229.037 129.273 229.462 130.125 229.647C130.46 229.707 130.777 229.844 131.05 230.046C131.034 230.107 131.026 230.137 131.018 230.168C129.948 231.485 128.877 232.845 127.785 234.124C127.178 234.849 127.169 235.042 127.937 235.584C128.324 235.883 128.393 235.869 128.719 235.501C129.183 234.986 129.63 234.455 130.076 233.925C130.522 233.394 131.218 232.703 131.768 232.07C132.131 231.647 132.475 231.176 132.845 230.809C133.088 230.549 133.228 230.511 133.508 230.683C133.701 230.794 133.912 230.873 134.13 230.915C134.878 231.104 135.614 231.334 136.336 231.604C136.599 231.674 136.621 231.756 136.475 231.977C136.227 232.376 135.948 232.767 135.702 233.157C134.932 234.37 134.23 235.612 133.432 236.807C133.103 237.304 132.792 237.817 132.473 238.316C132.411 238.379 132.366 238.456 132.343 238.542C132.32 238.627 132.32 238.716 132.343 238.802C132.404 238.966 132.506 239.112 132.638 239.227C132.771 239.342 132.93 239.422 133.101 239.46C133.435 239.549 133.666 239.297 133.848 239.064C134.03 238.831 134.296 238.447 134.494 238.153C135.034 237.355 135.563 236.555 136.093 235.754C136.763 234.752 137.537 233.811 138.147 232.75C138.378 232.335 138.496 232.258 138.949 232.434C139.659 232.7 140.386 232.906 141.116 233.101L141.258 233.139C141.564 233.297 141.617 233.42 141.477 233.74C141.147 234.486 140.762 235.195 140.469 235.962C140.177 236.729 139.667 237.698 139.261 238.564C138.855 239.431 138.405 240.383 137.988 241.289C137.926 241.522 137.722 241.716 137.801 241.987C137.881 242.258 138.213 242.314 138.427 242.447C138.641 242.581 138.974 242.594 139.214 242.268C139.314 242.13 139.401 241.983 139.473 241.828C139.597 241.569 139.71 241.307 139.842 241.06C140.578 239.61 141.333 238.209 142.045 236.688C142.428 235.869 142.861 235.064 143.294 234.259C143.472 233.917 143.49 233.932 143.89 234.018C144.691 234.232 145.434 234.583 146.235 234.755C146.499 234.825 146.557 234.971 146.446 235.223C146.355 235.391 146.28 235.566 146.219 235.747C146.062 236.334 145.902 236.93 145.684 237.5C145.427 238.461 145.02 239.37 144.793 240.339C144.611 241.016 144.283 241.633 144.16 242.336C144.16 242.354 144.156 242.372 144.146 242.387C143.9 242.933 143.718 243.506 143.602 244.094C143.577 244.151 143.567 244.214 143.573 244.277C143.579 244.339 143.601 244.399 143.637 244.45C143.744 244.591 143.882 244.704 144.041 244.78C144.2 244.857 144.375 244.894 144.551 244.89C144.694 244.88 144.831 244.829 144.945 244.742C145.06 244.655 145.145 244.536 145.193 244.401C145.456 243.831 145.676 243.241 145.85 242.637C145.999 242.081 146.222 241.534 146.421 240.992C146.745 240.147 147.062 239.289 147.356 238.436C147.65 237.583 148.035 236.711 148.287 235.814C148.371 235.5 148.535 235.414 148.807 235.574C149.101 235.726 149.416 235.836 149.741 235.9C150.096 235.995 150.45 236.09 150.805 236.185C151.413 236.348 151.404 236.421 151.293 237.042C151.289 237.073 151.281 237.104 151.268 237.133C151.183 237.881 151.046 238.623 150.858 239.352C150.704 239.929 150.641 240.529 150.516 241.114C150.42 241.476 150.353 241.846 150.318 242.22C150.298 242.778 150.104 243.301 150.034 243.845C149.964 244.39 149.824 244.873 149.764 245.42C149.675 246.198 149.465 246.131 150.378 246.375L150.57 246.427C151.067 246.56 151.077 246.563 151.235 246.053C151.39 245.475 151.514 244.89 151.607 244.299C151.756 243.786 151.874 243.264 151.961 242.736C152.049 242.001 152.282 241.294 152.431 240.576C152.702 239.565 152.82 238.437 153.155 237.389C153.247 237.045 153.244 237.055 153.617 237.123C154.515 237.298 155.325 237.721 156.205 237.924C156.377 237.971 156.404 238.075 156.393 238.235C156.36 238.725 156.339 239.207 156.326 239.702C156.269 241.496 156.133 243.302 155.969 245.089C155.932 245.632 155.901 246.154 155.899 246.728C155.897 247.302 155.99 247.24 156.829 247.313C157.212 247.34 157.398 247.216 157.465 246.844C157.494 246.773 157.514 246.698 157.524 246.622C157.543 246.551 157.565 246.47 157.584 246.399C157.752 245.285 157.783 244.155 157.954 243.031C158.151 241.729 158.18 240.404 158.28 239.098C158.31 238.662 158.41 238.613 158.806 238.719C159.576 238.925 160.288 239.268 161.072 239.424C161.193 239.456 161.315 239.489 161.437 239.521C161.558 239.554 161.787 239.713 161.801 239.987C161.823 240.676 161.855 241.367 161.93 242.059C162.089 243.575 162.198 245.111 162.26 246.623C162.271 246.781 162.298 246.937 162.342 247.089C162.362 247.191 162.42 247.282 162.504 247.343C162.589 247.404 162.694 247.43 162.797 247.417C163.067 247.39 163.335 247.35 163.601 247.296C163.64 247.296 163.679 247.286 163.714 247.268C163.749 247.251 163.779 247.226 163.803 247.194C163.827 247.163 163.844 247.128 163.852 247.089C163.86 247.051 163.86 247.011 163.85 246.973C163.819 246.076 163.831 245.18 163.8 244.283C163.751 243.089 163.678 241.899 163.67 240.716C163.649 240.266 163.684 240.254 164.108 240.335C164.532 240.416 164.957 240.692 165.399 240.789C166.017 240.954 166.625 241.117 167.243 241.283C167.367 241.301 167.481 241.359 167.567 241.449C167.653 241.539 167.707 241.655 167.719 241.779C167.961 243.025 168.228 244.256 168.473 245.492C168.542 245.803 168.577 246.116 168.623 246.431C168.644 246.556 168.675 246.684 168.848 246.687C169.131 246.727 169.419 246.712 169.696 246.643C170.077 246.518 170.217 246.36 170.143 245.95C169.937 244.811 169.778 243.62 169.545 242.463C169.463 242.04 169.564 241.948 169.987 242.029C170.148 242.045 170.306 242.087 170.453 242.154C170.956 242.382 171.482 242.552 172.023 242.661L173.858 243.153C173.976 243.168 174.087 243.22 174.175 243.302C174.262 243.384 174.321 243.491 174.344 243.608C174.45 243.983 174.602 244.349 174.72 244.717C174.839 245.085 174.902 245.253 175.438 245.159C175.595 245.143 175.748 245.103 175.893 245.042C176.36 244.799 176.408 244.703 176.215 244.207C176.201 244.177 176.191 244.145 176.186 244.113C176.082 243.771 176.165 243.663 176.517 243.768C177.252 243.948 177.999 244.072 178.753 244.14C179.012 244.194 179.276 244.229 179.54 244.242C179.955 244.234 179.989 244.189 180.021 243.786C180.158 243.235 180.257 242.675 180.318 242.11C180.521 242.261 180.663 242.48 180.718 242.726C180.725 242.774 180.743 242.819 180.771 242.858C180.799 242.897 180.836 242.929 180.879 242.952C180.922 242.974 180.97 242.985 181.018 242.985C181.066 242.985 181.114 242.974 181.157 242.952C181.414 242.88 181.662 242.775 181.892 242.64C182.27 242.406 182.258 242.37 182.071 241.973C181.967 241.778 181.876 241.576 181.798 241.369C181.538 240.801 181.28 240.222 181.045 239.639C180.957 239.453 180.926 239.245 180.956 239.041C181.186 238.182 181.305 237.292 181.497 236.412C181.69 235.532 181.825 234.539 182.105 233.617C182.175 233.638 182.239 233.674 182.293 233.723C182.348 233.771 182.391 233.83 182.421 233.896C182.689 234.379 182.989 234.843 183.32 235.286C183.633 235.738 183.892 236.23 184.206 236.683C184.825 237.574 185.431 238.474 186.009 239.398C186.445 240.122 186.634 240.107 187.286 239.74C187.938 239.373 187.786 239.332 187.53 238.83C187.147 238.11 186.645 237.51 186.255 236.777C185.865 236.044 185.26 235.058 184.77 234.211C184.08 233.138 183.472 232 182.834 230.897C182.788 230.841 182.755 230.775 182.738 230.705C182.722 230.635 182.721 230.562 182.736 230.491C182.882 229.944 182.999 229.389 183.084 228.829C183.18 228.514 183.242 228.189 183.267 227.86C183.293 227.622 183.355 227.391 183.451 227.172C183.514 226.94 183.613 226.934 183.76 227.114L186.625 230.45L191.359 236.053C191.759 236.507 191.939 236.523 192.424 236.132C192.571 236.015 192.702 235.879 192.815 235.728C192.847 235.693 192.871 235.652 192.887 235.608C192.903 235.563 192.91 235.516 192.907 235.469C192.905 235.422 192.893 235.376 192.872 235.334C192.852 235.291 192.823 235.253 192.788 235.222C192.495 234.894 192.231 234.542 191.972 234.212C190.669 232.628 189.446 230.989 188.151 229.418L186.452 227.326C185.733 226.44 184.996 225.582 184.329 224.666C183.662 223.75 182.711 222.596 181.904 221.556C181.096 220.516 180.07 219.277 179.199 218.112C178.327 216.946 177.382 215.729 176.447 214.557C176.292 214.364 176.14 214.161 176.001 213.95C175.974 213.92 175.959 213.881 175.96 213.841C175.96 213.801 175.977 213.763 176.005 213.734C176.026 213.653 176.138 213.683 176.197 213.786C176.257 213.888 176.454 213.963 176.567 214.069C177.985 215.424 179.406 216.769 180.919 218.096C181.338 218.479 181.808 218.833 182.191 219.228C182.96 220.008 183.785 220.738 184.595 221.443C185.966 222.732 187.382 223.978 188.755 225.256L191.758 227.957L193.257 229.334C194.25 230.25 195.274 231.131 196.274 232.06C196.33 232.138 196.411 232.195 196.503 232.22C196.596 232.245 196.694 232.236 196.781 232.196C197.035 232.064 197.245 231.86 197.383 231.61C197.459 231.499 197.49 231.364 197.472 231.231C197.453 231.098 197.386 230.976 197.283 230.889C196.939 230.591 196.629 230.248 196.301 229.933C195.431 229.125 194.606 228.395 193.787 227.558C192.35 226.154 190.917 224.73 189.492 223.319L185.895 219.754L181.982 215.834C180.875 214.736 179.78 213.63 178.679 212.511C178.503 212.331 178.336 212.141 178.179 211.944C178.111 211.871 178.012 211.758 178.115 211.656C178.218 211.553 178.321 211.657 178.409 211.734L178.517 211.817L180.751 213.413C181.755 214.126 182.712 214.892 183.731 215.588C185.015 216.473 186.259 217.424 187.521 218.348C188.784 219.271 190.19 220.309 191.58 221.202C192.683 221.909 193.731 222.699 194.801 223.452C196.633 224.723 198.481 225.933 200.195 227.281C200.355 227.411 200.458 227.352 200.602 227.26C200.758 227.106 200.89 226.929 200.992 226.736C201.196 226.422 201.174 226.384 200.897 226.158C199.834 225.342 198.776 224.506 197.729 223.673C197.216 223.275 196.732 222.853 196.206 222.463C195.125 221.675 194.095 220.814 193.048 219.98C192.151 219.274 191.246 218.598 190.357 217.861C189.468 217.125 188.568 216.429 187.603 215.693L185.075 213.694C184 212.842 182.914 212.031 181.833 211.157C181.228 210.702 180.684 210.177 180.034 209.764C179.84 209.636 179.754 209.429 179.855 209.337C179.956 209.245 180.125 209.301 180.239 209.364C180.753 209.675 181.273 209.966 181.81 210.229C182.348 210.493 182.933 210.866 183.5 211.181C185.472 212.28 187.456 213.375 189.452 214.466C190.845 215.229 192.208 216.06 193.637 216.768C195.066 217.476 196.54 218.337 198.006 219.109C199.197 219.732 200.414 220.34 201.618 220.955L203.662 222.044C203.711 222.081 203.769 222.104 203.83 222.111C203.892 222.118 203.953 222.108 204.01 222.083C204.11 222.029 204.196 221.952 204.262 221.859C204.328 221.766 204.371 221.659 204.389 221.546C204.406 221.433 204.397 221.318 204.363 221.209C204.329 221.1 204.27 221.001 204.192 220.918C203.955 220.706 203.694 220.524 203.414 220.374C202.038 219.55 200.688 218.668 199.281 217.88C197.874 217.091 196.49 216.135 194.984 215.309C193.266 214.339 191.641 213.232 189.926 212.252C188.37 211.369 186.883 210.353 185.317 209.468C184.043 208.747 182.812 207.951 181.582 207.188L181.273 206.965C181.248 206.944 181.231 206.916 181.223 206.885C181.216 206.853 181.219 206.82 181.232 206.791C181.26 206.69 181.356 206.737 181.434 206.769L183.599 207.566L186.148 208.553C186.463 208.637 186.753 208.812 187.071 208.919C187.676 209.135 188.273 209.382 188.869 209.628L190.652 210.355C191.248 210.602 191.863 210.821 192.462 211.057C193.274 211.394 194.056 211.798 194.897 212.067C195.737 212.336 196.723 212.751 197.628 213.102L200.569 214.291C201.55 214.684 202.536 215.057 203.512 215.47C204.487 215.883 205.267 216.135 206.12 216.559C206.544 216.759 206.728 216.722 206.985 216.292C207.02 216.161 207.126 216.048 207.192 215.925C207.418 215.487 207.32 215.244 206.849 215.096C206.515 214.978 206.19 214.837 205.876 214.673L204.163 213.889C203.473 213.585 202.778 213.301 202.086 213.007L200.151 212.12C199.347 211.753 198.515 211.454 197.719 211.1C196.236 210.432 194.825 209.74 193.296 209.081C191.767 208.422 190.613 207.863 189.237 207.322C188.557 207.063 187.916 206.74 187.297 206.455L185.354 205.598L183.677 204.845C183.647 204.835 183.619 204.818 183.595 204.797C183.572 204.775 183.553 204.749 183.539 204.721C183.526 204.692 183.518 204.661 183.517 204.629C183.515 204.597 183.52 204.565 183.531 204.536C183.535 204.5 183.545 204.466 183.563 204.435C183.581 204.405 183.606 204.378 183.635 204.358C183.664 204.338 183.697 204.325 183.732 204.319C183.768 204.313 183.803 204.315 183.838 204.325L185.632 204.806C189.497 205.787 193.313 206.951 197.207 207.821C199.583 208.36 201.91 209.081 204.326 209.631C205.13 209.792 205.918 210.057 206.708 210.269C207.358 210.47 208.024 210.616 208.699 210.705C208.798 210.727 208.902 210.718 208.996 210.68C209.09 210.641 209.17 210.574 209.224 210.488C209.442 210.374 209.605 210.178 209.678 209.944C209.751 209.709 209.728 209.455 209.613 209.238C209.499 209.02 209.302 208.857 209.067 208.784C208.832 208.711 208.578 208.734 208.36 208.848ZM134.324 207.897C135.762 207.394 137.171 206.796 138.612 206.283C138.913 206.109 139.269 206.057 139.607 206.138C139.564 206.3 139.426 206.328 139.323 206.387C138.306 206.981 137.271 207.56 136.251 208.164C135.966 208.333 135.642 208.426 135.31 208.432C134.593 208.458 133.874 208.428 133.161 208.344C133.543 208.175 133.919 208.027 134.324 207.897ZM184.302 196.431C183.615 196.663 182.954 196.961 182.325 197.321C181.066 198.007 179.873 198.808 178.762 199.714C177.794 200.57 176.885 201.488 176.038 202.463C175.277 203.384 174.639 204.401 174.141 205.487C173.701 206.356 173.358 207.271 173.117 208.214C172.853 209.377 172.702 210.564 172.667 211.756C172.644 212.575 172.697 213.395 172.826 214.204C172.94 214.764 173.192 215.286 173.56 215.723C173.871 216.142 174.128 216.601 174.414 217.035C175.2 218.156 175.981 219.297 176.68 220.417C177.12 221.087 177.575 221.74 178.024 222.413C178.474 223.086 179.069 224.026 179.67 224.783C179.977 225.179 180.227 225.626 180.494 226.087C180.555 226.17 180.594 226.267 180.607 226.369C180.62 226.471 180.605 226.575 180.566 226.67C180.372 227.382 180.218 228.104 180.106 228.833C179.835 229.844 179.708 230.807 179.498 231.791C179.289 232.775 179.127 233.664 178.938 234.61C178.75 235.557 178.569 236.516 178.378 237.472C178.187 238.429 177.978 239.532 177.737 240.552L177.724 240.602C177.686 240.744 177.812 240.962 177.61 241.027C177.427 241.066 177.238 241.07 177.053 241.04C176.942 241.021 176.833 240.992 176.728 240.953C174.326 240.309 171.911 239.716 169.522 239.022C168.377 238.715 167.231 238.408 166.121 238.013C165.268 237.709 164.377 237.546 163.538 237.234C162.197 236.723 160.781 236.496 159.44 236.028C158.635 235.747 157.788 235.585 157.001 235.277C156.215 234.969 155.562 234.891 154.874 234.62C153.389 234.082 151.864 233.695 150.383 233.179C149.876 233.043 149.37 232.907 148.873 232.774C147.97 232.413 146.988 232.269 146.101 231.847L146.01 231.823C144.988 231.575 143.984 231.263 143.002 230.887C142.161 230.678 141.337 230.403 140.539 230.064C140.512 230.046 140.481 230.038 140.448 230.04C139.617 229.817 138.823 229.496 138.002 229.276C137.181 229.056 136.324 228.729 135.478 228.481C134.927 228.342 134.386 228.168 133.858 227.96C133.105 227.606 132.267 227.533 131.54 227.165L131.449 227.141C130.421 226.92 129.459 226.456 128.432 226.235C127.405 226.014 126.577 225.619 125.634 225.366C125.209 225.252 124.802 225.067 124.376 224.953C124.194 224.904 124.126 224.832 124.216 224.618C124.471 223.992 124.685 223.356 124.97 222.739C125.254 222.122 125.567 221.36 125.861 220.67L126.797 218.515C127.077 217.875 127.372 217.26 127.642 216.574C127.987 215.735 128.42 214.93 128.686 214.058C128.862 213.571 129.063 213.093 129.287 212.626C129.432 212.286 129.591 211.939 129.726 211.596C129.861 211.253 129.957 211.181 130.295 211.217C131.271 211.305 132.248 211.264 133.214 211.349C133.752 211.378 134.291 211.371 134.828 211.326C136.576 211.288 138.321 211.163 140.056 210.95C141.767 210.753 143.46 210.416 145.116 209.944C146.541 209.531 147.91 208.944 149.191 208.196C150.532 207.439 151.624 206.308 152.333 204.942C152.825 204.081 153.064 203.098 153.024 202.107C152.985 201.116 152.667 200.155 152.108 199.334C151.401 198.299 150.431 197.471 149.297 196.934C148.732 196.683 148.141 196.496 147.535 196.375C147.197 196.27 146.87 196.132 146.56 195.962C146.368 195.864 146.203 195.722 146.076 195.549C145.949 195.376 145.864 195.175 145.827 194.964C145.813 194.557 145.709 194.159 145.521 193.798C145.367 193.562 145.159 193.365 144.914 193.224C143.974 192.679 143.004 192.246 142.11 191.768C140.478 190.91 138.93 189.9 137.487 188.752C136.806 188.212 136.123 187.682 135.478 187.13C134.6 186.353 133.722 185.576 132.974 184.758C131.644 183.318 130.333 181.883 129.142 180.329C128.611 179.634 128.158 178.895 127.65 178.195C126.898 177.149 126.204 176.052 125.532 174.951C125.16 174.353 124.776 173.719 124.457 173.125C124.138 172.53 123.903 171.99 123.54 171.481C123.269 171.034 123.031 170.568 122.827 170.087C122.698 169.894 122.651 169.658 122.695 169.43C122.74 169.203 122.873 169.002 123.065 168.872C123.323 168.749 123.615 168.716 123.894 168.78C124.019 168.797 124.142 168.83 124.259 168.878L135.823 171.976C139.685 173.011 143.536 174.043 147.397 175.078C147.571 175.157 147.769 175.168 147.95 175.108C148.131 175.048 148.283 174.922 148.375 174.755C148.456 174.6 148.566 174.464 148.701 174.354C148.836 174.243 148.991 174.161 149.159 174.112C149.326 174.062 149.501 174.047 149.674 174.067C149.848 174.087 150.015 174.141 150.167 174.227C150.468 174.333 150.783 174.388 151.101 174.391C151.242 174.403 151.384 174.372 151.507 174.303C151.63 174.233 151.73 174.128 151.792 174.001C151.998 173.677 152.065 173.305 152.241 172.973C152.368 172.666 152.604 172.417 152.903 172.271C153.202 172.126 153.544 172.095 153.865 172.184L199.636 184.448C200.115 184.545 200.554 184.784 200.897 185.133C201.172 185.45 201.346 185.843 201.395 186.26C201.444 186.677 201.366 187.099 201.172 187.471C200.589 188.55 199.969 189.609 199.417 190.696C199.073 191.373 198.751 192.046 198.437 192.731C198.209 193.324 197.812 193.837 197.296 194.208C196.78 194.58 196.166 194.794 195.53 194.823C194.032 194.942 192.54 194.997 191.04 195.083C188.738 195.187 186.465 195.642 184.302 196.431Z" fill="#96876B"/>
<path d="M175.289 140.475C164.154 137.491 152.386 137.868 141.474 141.559C130.562 145.249 120.995 152.087 113.984 161.207C106.973 170.328 102.833 181.321 102.086 192.798C101.339 204.274 104.02 215.718 109.789 225.682C115.558 235.646 124.157 243.683 134.498 248.776C144.838 253.87 156.457 255.791 167.883 254.297C179.31 252.803 190.032 247.96 198.693 240.382C207.354 232.804 213.565 222.83 216.542 211.723C220.533 196.828 218.429 180.953 210.693 167.592C202.956 154.23 190.221 144.476 175.289 140.475ZM145.767 250.287C135.122 247.437 125.559 241.501 118.287 233.231C111.016 224.961 106.363 214.728 104.917 203.826C103.471 192.924 105.297 181.844 110.164 171.985C115.03 162.127 122.72 153.933 132.259 148.442C141.798 142.95 152.758 140.407 163.754 141.133C174.749 141.86 185.286 145.823 194.031 152.523C202.777 159.223 209.338 168.357 212.885 178.771C216.431 189.186 216.805 200.412 213.957 211.03C210.143 225.266 200.816 237.399 188.028 244.761C175.24 252.123 160.038 254.111 145.767 250.287Z" fill="#96876B"/>
<path d="M50.806 87.3008C50.806 87.3008 70.1777 89.154 60.5472 125.096C50.9167 161.037 72.4819 149.272 77.7266 129.699C82.9712 110.125 99.8247 115.497 97.0399 125.891C94.255 136.284 107.579 159.532 121.957 143.696C136.336 127.859 153.341 119.814 161.769 132.55C170.197 145.287 170.018 174.128 184.076 165.043C198.133 155.959 201.105 131.084 211.599 145.881C222.093 160.677 207.185 190.935 222.104 194.933C237.023 198.93 238.077 152.997 251.901 156.701C265.726 160.406 254.196 173.028 264.565 175.807C274.933 178.585 269.313 161.367 279.286 164.039C289.259 166.711 276.325 176.997 287.626 180.025C298.927 183.053 295.396 152.849 310.315 156.847L50.806 87.3008Z" fill="#FFDD55" stroke="#121212" stroke-width="2" stroke-miterlimit="10"/>
</g>
<defs>
<filter id="filter0_d_0_2539" x="-3.17578" y="0.98877" width="402.99" height="361.188" filterUnits="userSpaceOnUse" color-interpolation-filters="sRGB">
<feFlood flood-opacity="0" result="BackgroundImageFix"/>
<feColorMatrix in="SourceAlpha" type="matrix" values="0 0 0 0 0 0 0 0 0 0 0 0 0 0 0 0 0 0 127 0" result="hardAlpha"/>
<feOffset dy="4"/>
<feGaussianBlur stdDeviation="2"/>
<feComposite in2="hardAlpha" operator="out"/>
<feColorMatrix type="matrix" values="0 0 0 0 0 0 0 0 0 0 0 0 0 0 0 0 0 0 0.25 0"/>
<feBlend mode="normal" in2="BackgroundImageFix" result="effect1_dropShadow_0_2539"/>
<feBlend mode="normal" in="SourceGraphic" in2="effect1_dropShadow_0_2539" result="shape"/>
</filter>
<clipPath id="clip0_0_2539">
<rect width="335.002" height="275.884" fill="white" transform="translate(72.2285 0.98877) rotate(15)"/>
</clipPath>
</defs>
</svg>
