<svg width="371" height="441" viewBox="0 0 371 441" fill="none" xmlns="http://www.w3.org/2000/svg">
<g clip-path="url(#clip0_0_2524)">
<path d="M314.311 381.667L153.975 424.629C153.662 424.713 153.329 424.68 153.039 424.537C152.748 424.394 152.519 424.151 152.395 423.852L41.4469 162.225C41.3716 162.049 41.3351 161.859 41.3399 161.667C41.3446 161.476 41.3906 161.287 41.4746 161.115C41.5585 160.943 41.6785 160.79 41.8264 160.669C41.9744 160.547 42.1469 160.458 42.3322 160.408L278.837 97.0371C279.019 96.9972 279.208 96.9958 279.391 97.0331C279.574 97.0703 279.746 97.1454 279.898 97.2535C280.05 97.3615 280.178 97.5 280.273 97.6603C280.369 97.8206 280.429 97.999 280.451 98.1841L315.193 380.23C315.231 380.534 315.164 380.842 315.004 381.103C314.844 381.365 314.599 381.564 314.311 381.667Z" fill="#E1C344" stroke="#171717" stroke-width="2" stroke-miterlimit="10"/>
<path d="M265.394 51.5446L261.602 52.5605L249.711 8.17974L74.6783 102.647L31.3272 114.263L26.7224 164.225L294.375 92.5079L265.394 51.5446Z" fill="white" stroke="#171717" stroke-width="2" stroke-miterlimit="10"/>
<path d="M153.75 422.718L278.65 101.068C278.773 100.853 278.958 100.678 279.18 100.567C279.402 100.455 279.652 100.412 279.899 100.442C280.146 100.472 280.378 100.574 280.566 100.736C280.755 100.897 280.892 101.111 280.96 101.35L315.311 380.329C315.35 380.616 315.282 380.907 315.12 381.148C314.958 381.389 314.714 381.562 314.433 381.634L155.194 424.302C154.983 424.341 154.765 424.326 154.562 424.258C154.358 424.189 154.176 424.07 154.031 423.912C153.887 423.753 153.785 423.56 153.736 423.351C153.687 423.142 153.692 422.924 153.75 422.718Z" fill="#CDB241" stroke="#171717" stroke-width="2" stroke-miterlimit="10"/>
<path d="M313.964 380.52L197.083 313.114C196.997 313.06 196.899 313.026 196.798 313.015C196.696 313.003 196.594 313.014 196.497 313.048C196.401 313.081 196.313 313.136 196.241 313.207C196.168 313.279 196.113 313.366 196.078 313.462L153.392 423.624C153.345 423.746 153.332 423.879 153.357 424.008C153.381 424.137 153.44 424.257 153.529 424.354C153.617 424.451 153.731 424.521 153.857 424.557C153.983 424.593 154.117 424.593 154.243 424.557L313.799 381.805C313.935 381.771 314.058 381.698 314.152 381.593C314.245 381.489 314.305 381.358 314.323 381.219C314.341 381.08 314.316 380.939 314.252 380.814C314.188 380.689 314.088 380.587 313.964 380.52Z" fill="#B49D3A" stroke="black" stroke-width="2" stroke-miterlimit="10"/>
<path d="M40.8945 160.793L216.039 261.8L280.386 96.6219L40.8945 160.793Z" fill="#FFDD55" stroke="#171717" stroke-width="2" stroke-miterlimit="10"/>
<path d="M31.328 114.263L265.395 51.5447L294.376 92.508L26.7232 164.225L31.328 114.263Z" fill="#E5E5E5" stroke="#171717" stroke-width="2" stroke-miterlimit="10"/>
<path d="M139.369 217.584L196.506 118.732L40.8941 160.794L139.369 217.584Z" fill="#FFE373" stroke="#171717" stroke-width="2" stroke-miterlimit="10"/>
<path d="M241.019 167.139C240.484 165.139 239.175 163.435 237.381 162.4C235.587 161.365 233.454 161.085 231.453 161.622L203.414 169.135C201.564 169.633 199.96 170.792 198.908 172.393C197.856 173.993 197.428 175.924 197.705 177.818L198.378 182.428L186.8 175.74C185.911 175.225 184.93 174.891 183.912 174.756C182.893 174.621 181.858 174.689 180.866 174.954L166.237 178.874C165.244 179.14 164.314 179.598 163.5 180.224C162.685 180.85 162.002 181.631 161.491 182.522L159.14 186.572C158.244 185.19 156.933 184.128 155.394 183.539C153.856 182.949 152.169 182.863 150.578 183.292L138.046 186.65C137.053 186.914 136.122 187.372 135.307 187.998C134.493 188.624 133.81 189.406 133.3 190.297C131.5 189.26 129.362 188.979 127.355 189.515L115.444 192.706C113.441 193.243 111.733 194.551 110.695 196.344C109.657 198.138 109.373 200.269 109.906 202.27L129.16 274.127C129.575 275.676 130.461 277.057 131.696 278.082C131.546 279.12 131.612 280.177 131.888 281.189L151.142 353.046C151.406 354.037 151.863 354.967 152.487 355.782C153.111 356.596 153.89 357.28 154.778 357.793C155.667 358.307 156.649 358.64 157.667 358.774C158.685 358.909 159.719 358.841 160.711 358.575L184.545 352.189C185.537 351.924 186.468 351.465 187.282 350.839C188.097 350.213 188.779 349.432 189.29 348.542L191.897 344.031C192.735 345.565 194.063 346.774 195.669 347.466C197.275 348.157 199.067 348.29 200.759 347.844L212.682 344.65C213.735 343.218 215.244 342.187 216.962 341.727C218.679 341.267 220.502 341.405 222.13 342.118L234.052 338.923C235.641 337.732 237.628 337.199 239.599 337.437L252.509 333.978C253.02 333.072 253.706 332.277 254.528 331.639C255.35 331.001 256.291 330.534 257.296 330.265C258.301 329.996 259.35 329.93 260.381 330.071C261.411 330.212 262.403 330.557 263.299 331.087L275.209 327.895C277.214 327.358 278.923 326.048 279.961 324.252C280.999 322.456 281.281 320.322 280.744 318.319L261.49 246.462C261.218 245.45 260.746 244.503 260.103 243.675C260.65 242.169 260.722 240.533 260.31 238.986L241.019 167.139ZM165.283 280.204L160.918 281.373L158.924 273.932C158.859 273.688 158.794 273.445 158.728 273.201C160.038 273.552 161.417 273.556 162.73 273.212L172.08 270.707L175.484 283.41L171.249 280.968C170.355 280.453 169.367 280.121 168.343 279.99C167.319 279.859 166.279 279.931 165.283 280.204Z" fill="white" stroke="#171717" stroke-width="2" stroke-miterlimit="10"/>
<path d="M136.738 272.083L117.484 200.227L129.395 197.035L137.482 227.215L140.87 226.307L140.098 194.167L152.631 190.809L152.661 227.103L173.418 262.242L160.678 265.656L144.405 236.573L140.297 237.674L148.658 268.877L136.738 272.083Z" fill="#000101"/>
<path d="M175.665 251.758L161.365 198.389L168.284 186.419L182.913 182.499L194.89 189.406L209.19 242.775L202.272 254.745L187.642 258.665L175.665 251.758ZM173.941 196.56L187.471 247.054L196.505 244.634L182.961 194.09L173.941 196.56Z" fill="#000101"/>
<path d="M233.472 169.16L252.726 241.017L240.803 244.212L224.3 182.622L218.205 184.255L228.231 247.568L216.418 250.733L205.478 176.648L233.472 169.16Z" fill="#000101"/>
<path d="M179.255 294.656L189.43 332.631L182.511 344.601L158.678 350.987L139.424 279.13L151.347 275.936L155.361 290.916L167.271 287.725L179.255 294.656ZM167.511 298.469L158.063 301L167.921 337.793L177.369 335.262L167.511 298.469Z" fill="#000101"/>
<path d="M198.762 340.247L179.508 268.39L191.431 265.195L199.357 294.779L208.805 292.247L200.885 262.688L212.808 259.494L232.062 331.35L220.139 334.545L211.664 302.916L202.216 305.447L210.685 337.052L198.762 340.247Z" fill="#000101"/>
<path d="M230.008 254.885L253.842 248.498L273.096 320.355L261.185 323.547L254.985 300.406L250.571 301.589L250.396 326.438L237.559 329.877L239.13 302.044L231.284 297.437L223.096 266.879L230.008 254.885ZM244.623 261.738L235.175 264.269L242.877 293.012L252.325 290.48L244.623 261.738Z" fill="#000101"/>
</g>
<defs>
<clipPath id="clip0_0_2524">
<rect width="280.729" height="380.343" fill="white" transform="translate(0.478516 73.3037) rotate(-15)"/>
</clipPath>
</defs>
</svg>
