<svg width="1231" height="413" viewBox="0 0 1231 413" fill="none" xmlns="http://www.w3.org/2000/svg">
<path d="M2 33.7136L1229 2L1229 411L2.00001 399.599L2 33.7136Z" fill="#E6BC28"/>
<path d="M2 33.7136L1.96124 32.2141L0.5 32.2518V33.7136H2ZM1229 2L1230.5 2V0.460729L1228.96 0.500501L1229 2ZM1229 411L1228.99 412.5L1230.5 412.514V411H1229ZM2.00001 399.599H0.50001V401.085L1.98607 401.099L2.00001 399.599ZM2 33.7136L2.03876 35.2131L1229.04 3.4995L1229 2L1228.96 0.500501L1.96124 32.2141L2 33.7136ZM1229 2L1227.5 2L1227.5 411H1229H1230.5L1230.5 2L1229 2ZM1229 411L1229.01 409.5L2.01395 398.099L2.00001 399.599L1.98607 401.099L1228.99 412.5L1229 411ZM2.00001 399.599H3.50001L3.5 33.7136H2H0.5L0.50001 399.599H2.00001Z" fill="#E6BC28"/>
</svg>
