<svg width="350" height="1572" viewBox="0 0 350 1572" fill="none" xmlns="http://www.w3.org/2000/svg">
<path d="M349.003 83.0142H350.003V82.6082L349.72 82.3171L349.003 83.0142ZM349.003 193.463L348.448 194.295L350.003 195.332V193.463H349.003ZM349 193.461L349.555 192.629L348 191.593V193.461H349ZM349 1502.5L349.043 1503.5L350 1503.46V1502.5H349ZM48.2217 1515.43L48.1787 1514.43L46.9484 1514.49L47.2527 1515.68L48.2217 1515.43ZM62 1569.46L61.3947 1570.26L63.6777 1572L62.969 1569.22L62 1569.46ZM1 1523.07H0V1523.57L0.394663 1523.87L1 1523.07ZM1 158.364L0.794965 157.385L0 157.552V158.364H1ZM270.703 101.865L270.908 102.843L271.703 102.677V101.865H270.703ZM270.703 2.46338L271.42 1.76636L269.703 -5.48363e-05V2.46338H270.703ZM349.003 83.0142H348.003V193.463H349.003H350.003V83.0142H349.003ZM349.003 193.463L349.558 192.631L349.555 192.629L349 193.461L348.445 194.293L348.448 194.295L349.003 193.463ZM349 193.461H348V1502.5H349H350V193.461H349ZM349 1502.5L348.957 1501.5L48.1787 1514.43L48.2217 1515.43L48.2646 1516.43L349.043 1503.5L349 1502.5ZM48.2217 1515.43L47.2527 1515.68L61.031 1569.71L62 1569.46L62.969 1569.22L49.1907 1515.19L48.2217 1515.43ZM62 1569.46L62.6053 1568.67L1.60534 1522.28L1 1523.07L0.394663 1523.87L61.3947 1570.26L62 1569.46ZM1 1523.07H2V158.364H1H0V1523.07H1ZM1 158.364L1.20504 159.343L270.908 102.843L270.703 101.865L270.498 100.886L0.794965 157.385L1 158.364ZM270.703 101.865H271.703V2.46338H270.703H269.703V101.865H270.703ZM270.703 2.46338L269.986 3.1604L348.286 83.7112L349.003 83.0142L349.72 82.3171L271.42 1.76636L270.703 2.46338Z" fill="#E6BC28"/>
</svg>
