<svg width="1714" height="1403" viewBox="0 0 1714 1403" fill="none" xmlns="http://www.w3.org/2000/svg">
<path d="M1712 127.724V1301L131.74 1271.07L163 1399L2 1271.22V229.101L1622.21 143.73L1597 5L1712 127.724Z" fill="#171717"/>
<path d="M1712 127.724H1713.5V127.131L1713.09 126.698L1712 127.724ZM1712 1301L1711.97 1302.5L1713.5 1302.53V1301H1712ZM131.74 1271.07L131.769 1269.57L129.821 1269.53L130.283 1271.42L131.74 1271.07ZM163 1399L162.067 1400.17L165.496 1402.9L164.457 1398.64L163 1399ZM2 1271.22H0.5V1271.94L1.06748 1272.39L2 1271.22ZM2 229.101L1.92107 227.603L0.5 227.678V229.101H2ZM1622.21 143.73L1622.29 145.228L1623.99 145.139L1623.69 143.462L1622.21 143.73ZM1597 5L1598.09 3.97434L1594.61 0.260162L1595.52 5.26819L1597 5ZM1712 127.724H1710.5V1301H1712H1713.5V127.724H1712ZM1712 1301L1712.03 1299.5L131.769 1269.57L131.74 1271.07L131.712 1272.57L1711.97 1302.5L1712 1301ZM131.74 1271.07L130.283 1271.42L161.543 1399.36L163 1399L164.457 1398.64L133.197 1270.71L131.74 1271.07ZM163 1399L163.933 1397.83L2.93252 1270.04L2 1271.22L1.06748 1272.39L162.067 1400.17L163 1399ZM2 1271.22H3.5V229.101H2H0.5V1271.22H2ZM2 229.101L2.07893 230.599L1622.29 145.228L1622.21 143.73L1622.13 142.233L1.92107 227.603L2 229.101ZM1622.21 143.73L1623.69 143.462L1598.48 4.73181L1597 5L1595.52 5.26819L1620.73 143.999L1622.21 143.73ZM1597 5L1595.91 6.02566L1710.91 128.749L1712 127.724L1713.09 126.698L1598.09 3.97434L1597 5Z" fill="#E6BC28"/>
</svg>
