<?xml version="1.0" encoding="UTF-8"?>
<svg id="Layer_1" xmlns="http://www.w3.org/2000/svg" version="1.1" viewBox="0 0 1452.81 495.29">
  <!-- Generator: Adobe Illustrator 29.8.2, SVG Export Plug-In . SVG Version: 2.1.1 Build 3)  -->
  <defs>
    <style>
      .st0 {
        fill: #fff;
      }
    </style>
  </defs>
  <g>
    <path class="st0" d="M373.46,164.45c-55.63-.01-111.27-.01-166.9-.01-.47,0-.94,0-1.41,0-.98-.02-1.55.42-1.5,1.44.14,3.01-.35,6.04.36,9.03.42,1.76.61,2,2.36,2.05,3.16.09,165.9-12.38,169-12.15.09,0,.19-.12.31-.21-.73-.32-1.48-.15-2.2-.15Z"/>
    <path class="st0" d="M305.68,316c-.76-1.03-1.37-.9-1.85.33-.39,1-.64,2.03-.28,3.14.68,2.12,1.55,4.14,2.74,6.03,3.45,5.48,7.74,10.26,12.17,14.93,2.45,2.58,5,5.08,7.59,7.53,2.04,1.93,4.21,3.73,6.31,5.59.51.45.95.95.91,1.71-.09,1.75.3,3.47.35,5.2.21,7.45-.16,14.9.41,22.35.24,3.14.02,6.32.05,9.48.01,1.43.08,1.5,1.48,1.52,1.88.03,3.77,0,5.65,0,1.75,0,3.5,0,5.25,0,2.16,0,2.16-.01,2.16-2.26,0-1.68-.15-3.33-.37-5-.41-3.11-.5-6.26-.89-9.37-.46-3.64-.8-7.3-1.2-10.94-.16-1.46-.26-2.93-.47-4.38-.33-2.18-.51-4.38-.68-6.57-.18-2.25-.61-4.07-2.66-5.65-4.7-3.64-9.43-7.27-13.89-11.23-3.31-2.93-6.78-5.69-9.9-8.82-4.4-4.42-9.11-8.56-12.86-13.6Z"/>
    <path class="st0" d="M185.09,173.86c-1.29.34-2.65.02-4.12.53,1.57,2.26,3.77,3.68,5.23,5.73,1.49,2.09,2.49,4.47,3.75,7.15-.06-7.53-.71-13.52-1.66-15.31-.93.88-1.91,1.56-3.22,1.91Z"/>
    <path class="st0" d="M174.13,179.66c-.7.07-.93.44-1.19.73-2.03,2.24-4.56,3.14-7.56,3.07-1.29-.03-2.52-.39-3.78-.42-5.16-.13-10.33-.21-15.49-.33-13.11-.28-26.24-.1-39.36-.09-.53,0-1.06.05-1.6.08,5.44,1.24,10.93,1.94,16.4,2.69,4.89.67,9.81,1.27,14.73,1.61,4.27.29,8.48,1.07,12.75,1.36,1.38.09,2.79.22,4.18.41,2.71.37,5.41.82,8.13,1.1,2.56.26,4.81,1.18,6.8,2.73,2.84,2.21,4.18,5.35,5.13,8.68,1.69,5.92,3.29,11.87,5.03,17.77.39,1.31,1.19,2.49,1.81,3.74.12-.06.25-.11.37-.17-1.07-7.18-2.13-14.36-3.21-21.54-1.07-7.14-1.66-14.35-3.14-21.41Z"/>
    <path class="st0" d="M458.58,244.83c-3.48-.09-6.95-.09-10.42-.39-3.4-.29-6.82-.01-10.25-.36-3.91-.39-7.88-.15-11.82-.43-4.59-.33-9.2-.22-13.81-.38-7.11-.24-14.24-.15-21.35-.48-1.07-.05-2.16-.06-3.23,0-4.64.27-9.24-.6-13.88-.43-.49.02-1.18.19-1.28-.6-.08-.66.52-.86.97-1.13,1.35-.81,2.92-.99,4.37-1.39,4.35-1.18,8.61-2.56,12.67-4.51,1.27-.61,2.55-1.09,3.99-1.28,2.52-.34,5.01-.86,7.57-.78.33,0,.66-.12.98-.17,2.11-.34,4.21-.78,6.33-.99,2.6-.25,5.15-.77,7.72-1.14,3.24-.46,6.48-.87,9.73-1.31,2.25-.31,4.5-.61,6.74-.94,3.37-.49,6.75-.92,10.1-1.51,1.93-.34,3.89-.21,5.8-.48,2.64-.37,5.27-.84,7.93-1.13,1.16-.12,2.22-.45,3.02-1.4.72-.85.16-1.65.04-2.48-.47-3.11-.46-3.11-3.55-2.97-.4.02-.8.1-1.19.15-1.92.22-3.84.53-5.77.63-2.21.12-4.44.25-6.6.55-3.85.53-7.73.6-11.58,1.04-3.25.37-6.51.73-9.78.96-1.38.1-2.79.22-4.18.42-1.91.28-3.84.48-5.76.69-1.86.2-3.73.3-5.58.57-2.07.3-2.87-.52-2.37-2.59.47-1.95,1.07-3.88,1.38-5.86.47-3,.88-3.68,3.77-4.46,7.75-2.1,15.54-4.08,23.27-6.26,6.76-1.91,13.57-3.65,20.36-5.45,3.45-.92,3.55-.6,2.57-4.47-.55-2.18-1-2.47-3.21-2.15-.26.04-.52.13-.77.21-2.41.83-4.95,1.08-7.42,1.65-2.26.52-4.58.96-6.84,1.52-7.79,1.92-15.61,3.74-23.47,5.35-1.1.23-2.2.61-3.36.55-1.49-.09-1.98-.71-1.36-2.09,1.57-3.45,2.43-7.08,3.03-10.8.17-1.04.72-1.8,1.8-2.2,1.88-.7,3.72-1.53,5.59-2.28,3.67-1.48,7.38-2.85,11.01-4.43,5.17-2.24,10.38-4.39,15.61-6.47,1.84-.73,2.23-1.31,1.79-3.18-.2-.84-.55-1.66-.93-2.44-.66-1.35-.92-1.45-2.38-.99-2.29.73-4.62,1.36-6.83,2.27-6.39,2.63-12.96,4.76-19.44,7.14-1.06.39-2.12.74-3.25,1.13-.5-1.29.18-2.34.37-3.42.61-3.48,1.96-6.81,1.88-10.44-.1-4.55,0-4.51,4.08-6.69,3.43-1.84,6.8-3.78,10.19-5.7,1.4-.79,2.78-1.63,4.15-2.47,1.3-.79,1.44-1.16.88-2.63-.33-.88-.74-1.73-1.22-2.54-.69-1.18-1.44-1.42-2.73-.94-.5.19-.99.43-1.44.72-4.94,3.17-10.43,5.27-15.59,7.99-.77.41-1.37.48-1.84-.41-.15-.29-.47-.49-.66-.76-2.02-3.02-4.93-4.83-8.17-6.28-1.48-.66-3.18-.86-4.68-1.95,3.75-2.8,7.34-5.47,10.93-8.16,3.59-2.69,7.19-5.37,10.76-8.09,1.04-.79,1.14-1.74.44-2.83-.22-.34-.54-.6-.76-.93-1.67-2.47-1.79-2.75-4.76-.75-3.44,2.33-6.84,4.72-10.27,7.07-1.11.76-2.33,1.36-3.36,2.2-1.67,1.36-3.42,2.6-5.2,3.78-3.31,2.17-6.6,4.36-9.79,6.69-1,.73-2.01,1.16-3.33,1.14-5.11-.08-10.23-.03-15.35-.03-.4,0-.81.02-1.21-.03-.71-.07-.8-.5-.36-.94.62-.61,1.38-1.06,2-1.67,7.63-7.59,15.19-15.25,23.02-22.63,1.11-1.05,2.24-2.12,3.36-3.12,2.57-2.29,4.9-4.8,7.35-7.18,2.84-2.75,2.82-3.18.28-6.1-.09-.1-.17-.21-.28-.29-1.33-1.08-2.44-1.14-3.33.03-.36.48-.84.87-1.3,1.27-3.36,2.98-6.79,5.88-10.06,8.95-1.81,1.7-3.71,3.31-5.54,4.97-1.39,1.26-2.69,2.63-4.15,3.81-3.44,2.78-6.54,5.95-9.95,8.77-1.87,1.54-3.49,3.35-5.34,4.9-3.23,2.72-6.38,5.53-9.49,8.38-.7.64-1.4.93-2.33.91-3.03-.04-6.06,0-9.09-.02-.44,0-.96.17-1.26-.39.04-.64.41-1.1.79-1.58,1.51-1.87,3-3.77,4.5-5.65,1.67-2.09,3.27-4.25,5.03-6.26,2.43-2.78,4.72-5.65,7-8.54,2.28-2.89,4.6-5.75,6.9-8.63,2.38-2.98,4.76-5.96,7.13-8.95,1.75-2.2,3.36-4.53,5.25-6.59,2.86-3.12,5.17-6.67,8.06-9.76.42-.45.54-.97.1-1.44-.92-.98-1.75-2.06-2.92-2.76-1.3-.78-2.28-.58-3.13.64-.35.5-.73.96-1.15,1.4-2.09,2.18-3.89,4.61-5.93,6.83-3.02,3.31-5.73,6.9-8.76,10.21-2.22,2.42-4.34,4.94-6.44,7.45-2.71,3.24-5.73,6.2-8.41,9.47-1.91,2.33-3.97,4.54-5.94,6.82-2.32,2.68-4.62,5.39-6.93,8.08-1.92,2.24-3.98,4.37-5.72,6.73-1.52,2.05-3.14,3.35-5.86,2.97-1.49-.21-3.02-.07-4.4-.09-.26-.55-.06-.75.08-.97,1.14-1.82,2.29-3.62,3.41-5.45,3.57-5.84,7.11-11.69,10.68-17.52,3.01-4.92,6.07-9.8,9.07-14.72,1.78-2.92,3.44-5.92,5.26-8.81,5.27-8.34,10.33-16.79,15.48-25.2.47-.77.3-1.15-.21-1.71-1.03-1.16-2.49-1.57-3.75-2.31-.86-.51-1.49-.19-1.8.57-.39.95-.95,1.76-1.51,2.6-3.24,4.85-6.59,9.62-9.73,14.55-2.81,4.41-5.82,8.68-8.75,13.01-4.17,6.16-8.06,12.51-12.36,18.59-4.11,5.8-7.69,11.96-11.84,17.74-1.96,2.72-3.76,5.56-5.6,8.36-.38.57-.72,1.26-1.45,1.28-1.63.06-3.29.27-5.12-.19.82-1.68,1.56-3.17,2.28-4.68,2.46-5.15,4.43-10.52,7.02-15.61,2.43-4.79,4.26-9.86,6.65-14.68,2.48-4.98,4.59-10.15,6.88-15.23,1.38-3.06,2.88-6.07,4.13-9.18,1.91-4.72,4.36-9.2,6.24-13.93,1.07-2.68,2.47-5.22,3.66-7.85.67-1.46,1.29-2.95,1.81-4.48.4-1.2.13-1.68-.96-2.3-.53-.3-1.09-.54-1.61-.84-2.35-1.37-2.6-1.31-3.79,1.04-.09.18-.19.36-.28.54-4.44,8.9-8.91,17.78-13.19,26.76-2.22,4.65-4.6,9.23-6.91,13.85-7.37,14.74-14.74,29.49-22.11,44.23q-1.4,2.8-4.59,2.54c-.11,0-.21-.14-.48-.33,1.11-3.85,2.19-7.78,3.36-11.68,1.6-5.33,3.48-10.56,4.94-15.94,1.05-3.88,2.22-7.74,3.57-11.53,1.89-5.31,3.18-10.8,4.92-16.16,2.4-7.39,4.45-14.89,6.83-22.29,1.92-6,3.7-12.05,5.58-18.06.19-.6.39-1.21-.08-1.71-1.01-1.07-2.26-1.55-3.76-1.64-1.34-.08-1.95.66-2.51,1.61-.52.86-.94,1.75-1.16,2.76-.33,1.5-.81,2.98-1.31,4.43-.88,2.53-1.8,5.06-2.77,7.56-1.24,3.19-2.25,6.46-3.27,9.72-.95,3-2.1,5.94-3.2,8.9-1.22,3.27-2.27,6.59-3.36,9.9-2.15,6.49-4.65,12.86-6.83,19.35-2.87,8.58-5.94,17.09-8.94,25.63-1,2.85-2.03,5.69-3.08,8.51-.36.97-1.46,1.36-2.51.96-.89-.34-.53-1.11-.56-1.74,0-.19.11-.39.14-.58.35-1.97.61-3.96,1.05-5.91.71-3.13,1.08-6.32,1.51-9.49.22-1.66.61-3.29.89-4.93.74-4.28,1.48-8.55,2.23-12.83.73-4.14,1.38-8.3,2.26-12.41.52-2.43.61-4.9,1.08-7.33.59-3.08,1.13-6.18,1.68-9.27.91-5.06,1.81-10.12,2.7-15.18.6-3.42,1.16-6.85,1.77-10.27.58-3.29.82-6.62,1.5-9.9.24-1.15.61-2.34.51-3.57-.11-1.34-.93-2.22-2.28-2.34-.47-.04-.94-.01-1.41-.01-2.24,0-2.8.49-3.19,2.7-.71,4.01-1.31,8.05-2.17,12.03-2.18,10.06-4.61,20.06-6.46,30.19-1.75,9.59-4.37,19.01-6.06,28.63-1.25,7.1-3.13,14.1-4.65,21.15-.71,3.26-1.61,6.49-2.06,9.81-.16,1.19-.28,1.33-1.51,1.3-1.17-.03-1.21-.14-1.34-1.48-.14-1.5.34-2.93.41-4.39.13-2.88,0-5.75.34-8.64.37-3.04.04-6.15.43-9.24.33-2.65.05-5.34.37-8.03.36-2.98.08-6.02.43-9.03.31-2.65.28-5.36.34-8.02.1-4.56.59-9.11.55-13.68-.03-3.08.13-6.16.25-9.24.19-4.55.52-9.11.54-13.68.02-3.76.62-7.49.4-11.26,0-.13,0-.27.03-.4.76-3.46.2-6.97.36-10.45.03-.65-.14-1.19-.83-1.45-3.22-1.23-5.47-.26-6.02,3.26-.44,2.84-.55,5.73-.73,8.58-.21,3.27-.77,6.54-.51,9.84.04.47.09.97-.04,1.41-.77,2.48-.31,5.06-.64,7.59-.31,2.36-.5,4.79-.6,7.2-.08,1.86-.13,3.76-.42,5.6-.54,3.44-.72,6.91-1.04,10.36-.2,2.19-.44,4.4-.58,6.6-.1,1.59-.03,3.24-.38,4.79-.52,2.24-.44,4.53-.62,6.78-.2,2.66-.75,5.32-.52,8.02.02.26-.06.53-.09.8-.23,2.19-.6,4.38-.66,6.57-.06,2.02-.37,4-.54,6-.26,3.13-.77,6.24-.72,9.39.02,1.21-.02,2.42,0,3.63.02.7-.19,1.32-.43,1.95-.29.78-.96.59-1.54.58-.58,0-.76-.36-.86-.9-.55-3.24-.45-6.53-.74-9.8-.21-2.32-.5-4.66-.58-7.01-.04-1.29-.22-2.65-.44-3.97-.3-1.84-.62-3.71-.62-5.57,0-2.16-.35-4.28-.55-6.4-.32-3.4-.57-6.81-.63-10.21-.07-3.63-.22-7.25-.57-10.84-.36-3.65-.66-7.32-1.15-10.95-.25-1.8-.19-3.62-.48-5.39-.33-2.05-.54-4.12-.63-6.17-.1-2.28-.43-4.53-.55-6.81-.17-3.13-.72-6.24-.72-9.39,0-.34.02-.69-.07-1-.62-2.08-.43-4.26-.63-6.37-.2-2.05-.55-4.11-.55-6.2,0-1.46-.71-1.98-2.18-2.02-.87-.02-1.75-.04-2.62,0-1.42.07-1.91.57-2.01,1.96-.1,1.35.33,2.67.36,3.99.11,5.36.4,10.71.82,16.05.2,2.6.02,5.21.36,7.83.35,2.71.07,5.47.41,8.23.35,2.78.02,5.61.4,8.43.36,2.64.08,5.34.39,8.03.35,3.05.04,6.15.43,9.24.33,2.65.1,5.34.37,8.03.36,3.73.28,7.5.4,11.25.16,4.76.77,9.51.5,14.28,0,.13-.01.27.02.4.76,3.26.24,6.56.36,9.85.05,1.32-.67,1.78-1.91,1.43-.73-.21-.81-.78-.93-1.39-1.1-5.37-2.42-10.68-3.38-16.08-1.83-10.26-4.78-20.29-6.4-30.61-.59-3.76-1.68-7.43-2.45-11.16-1.45-7-3.17-13.94-4.41-20.99-1.31-7.5-3.2-14.9-4.78-22.35-.87-4.12-1.4-3.02-4.32-3.16-.2-.01-.41,0-.6.03-1.53.25-2.28,1.3-2.04,2.87.15.99.39,1.97.56,2.95.76,4.41,1.51,8.82,2.27,13.22.59,3.42,1.07,6.87,1.82,10.25.6,2.69.64,5.44,1.18,8.13.42,2.1.82,4.2,1.2,6.3.76,4.27,1.5,8.55,2.25,12.82.73,4.14,1.42,8.29,2.23,12.42.47,2.43.58,4.9,1.09,7.33.65,3.07,1.09,6.18,1.67,9.27.8,4.27,1.53,8.54,2.34,12.81.46,2.39.99,4.78,1.1,7.23-3.08.39-3.14.36-4.03-2.34-.81-2.49-1.53-5-2.38-7.48-.96-2.79-2.03-5.54-3.03-8.32-1.39-3.85-2.59-7.76-3.96-11.61-1.49-4.16-2.84-8.38-4.5-12.48-1.16-2.87-1.83-5.88-2.96-8.76-1.64-4.18-3.15-8.42-4.52-12.7-.76-2.36-1.55-4.7-2.37-7.04-1.33-3.8-2.9-7.52-4.02-11.38-1.51-5.16-3.67-10.08-5.27-15.21-.6-1.91-1.42-2.23-3.39-1.7-.32.09-.65.19-.96.3-2.57.94-2.79,1.41-1.92,4.05,1.77,5.34,3.49,10.7,5.03,16.12,2.32,8.19,5.23,16.2,7.46,24.42.88,3.23,2.14,6.35,3.13,9.55,2.21,7.17,4.34,14.37,6.53,21.55,2.17,7.12,4.37,14.23,6.55,21.34.1.32.23.64.25.97.04.45-.17.73-.65.85-1.96.5-3.16-.03-4.06-1.81-.15-.3-.3-.6-.45-.9-12.42-24.84-24.84-49.68-37.25-74.53-1.91-3.83-3.77-7.68-5.63-11.54-.36-.75-.76-1.14-1.71-.91-1.47.36-2.77.99-3.94,1.91-.58.45-.84.96-.42,1.73,2.22,4.08,3.73,8.47,5.72,12.66,2.15,4.55,4.2,9.15,6.27,13.74,2.18,4.83,4.31,9.69,6.48,14.52,1.46,3.24,2.97,6.46,4.42,9.7,2.68,6,5.32,12.01,8.02,18,2.14,4.77,4.39,9.49,6.5,14.28,1.54,3.49,1.47,3.5-2.32,4.24-.72.14-1.08-.09-1.52-.62-1.61-1.9-2.85-4.05-4.22-6.12-4.55-6.87-9.13-13.72-13.71-20.58-3.24-4.85-6.45-9.72-9.73-14.54-5.05-7.43-9.93-14.97-14.89-22.46-2.59-3.91-5.38-7.7-7.79-11.73-1.78-2.98-1.68-1.96-4.2-1.08-.43.15-.81.48-1.18.76-1.42,1.08-1.67,2.15-.65,3.65,1.2,1.79,2.25,3.66,3.38,5.48,3.92,6.32,7.85,12.64,11.81,18.94,3.68,5.84,7.04,11.88,10.79,17.68,3.13,4.83,5.98,9.85,9.03,14.74,3.3,5.29,6.51,10.64,9.77,15.96,1.09,1.77,2.22,3.52,3.29,5.3.33.55.81,1.14.47,1.87-.46.97-.95,1.93-1.45,2.88-.26.5-.64.4-.98.1-.3-.26-.6-.55-.87-.84-1.71-1.88-3.37-3.81-5.02-5.76-2.38-2.82-4.94-5.47-7.36-8.26-1.45-1.68-3.01-3.25-4.46-4.92-2.6-2.98-5.12-6.02-7.78-8.94-1.85-2.03-3.58-4.16-5.36-6.26-2.04-2.4-4.05-4.82-6.11-7.19-2.29-2.63-4.75-5.11-6.93-7.82-3.74-4.65-7.74-9.07-11.67-13.54-2.48-2.82-5.07-5.54-7.35-8.52-.4-.52-.76-.6-1.37-.35-1.23.5-2.11,1.41-3.01,2.32-1.44,1.47-1.47,1.67-.1,3.11,2.27,2.39,4.1,5.12,6.18,7.65,2.29,2.8,4.43,5.71,6.75,8.49,2.74,3.29,5.27,6.75,8.11,9.97,1.99,2.25,3.77,4.7,5.64,7.05,2.83,3.56,5.67,7.12,8.51,10.68,2.37,2.99,4.81,5.93,7.08,8.98,1.68,2.26,3.66,4.26,5.38,6.5,1.71,2.23,3.53,4.38,5.29,6.57,1.68,2.08,3.37,4.16,5.02,6.27.31.4.69.83.3,1.44-.73,1.13-3.43,1.82-4.55,1.08-.67-.44-1.32-.93-1.91-1.47-3.58-3.34-7.27-6.54-10.96-9.76-3.63-3.17-7.18-6.45-10.81-9.62-3.89-3.4-7.6-7-11.39-10.52-.25-.23-.47-.49-.73-.69-3.33-2.6-6.39-5.52-9.47-8.39-2.94-2.75-6.08-5.26-9.01-8.03-3.79-3.59-7.9-6.85-11.64-10.51-.38-.38-.76-.76-1.19-1.08q-2.99-2.23-5.62.52s-.12.07-.16.12c-1.26,1.32-1.27,2.26.07,3.61,1.46,1.48,3.02,2.86,4.57,4.24,3.46,3.09,6.55,6.55,10.02,9.64,4.57,4.06,8.58,8.71,13.19,12.76,3.83,3.37,7.32,7.12,11,10.66,5.81,5.59,11.65,11.16,17.37,16.85.46.46,1.1.8,1.2,1.54-.5.69-1.23.47-1.87.48-2.15.02-4.31,0-6.46.01-1.73.02-3.32-.37-4.71-1.43-2.99-2.27-6.09-4.4-9.19-6.5-7.99-5.42-15.91-10.94-23.84-16.45-2.86-1.99-5.81-3.85-8.68-5.83-4.9-3.39-9.75-6.85-14.64-10.26-2.09-1.46-3.13-1.28-4.7.74-.25.31-.44.68-.62,1.03-.87,1.69-.74,2.3.79,3.4,6.35,4.59,12.63,9.27,18.87,14.01,7.94,6.04,16.06,11.84,24.04,17.84,1.1.83,2.53,1.45,3.14,2.87-.78.65-1.6.57-2.41.57-5.72,0-11.44-.02-17.16.02-1.11,0-2.1-.24-3.08-.75-4.1-2.15-8.23-4.26-12.34-6.39-7.22-3.74-14.43-7.5-21.66-11.22-1.95-1.01-2.64-.77-3.73,1.15-.2.35-.38.71-.55,1.08-.91,1.88-.74,2.58,1.07,3.61,5.31,3.02,10.65,5.98,15.95,9.01,1.65.94,3.36,1.82,4.99,3.17-.79.45-1.47.32-2.11.32-3.23.01-6.46,0-9.69.01-1.54.01-3.07.18-4.6.3-4.11.3-6.92,2.61-9.47,5.45-.53.59-1.04.82-1.75.59-.96-.3-1.9-.69-2.86-.96-1-.28-1.91.08-2.09,1.01-.21,1.08-.74,2.01-1.06,3.03-.33,1.05.09,1.7.86,2.22.38.25.86.35,1.3.52,1.96.76,2.07.81,1.99,2.92-.17,4.37,1.65,7.98,4.33,11.18,2.28,2.73,4.71,5.33,7.3,7.79.46.44,1.1.79,1.16,1.52-.33.39-.64.14-.94.06-6.15-1.62-12.38-2.85-18.57-4.29-3.56-.83-4.54-.25-5.36,3.28-.41,1.76-.05,2.42,1.71,2.88,5.76,1.5,11.57,2.83,17.29,4.49,4.18,1.22,8.37,2.4,12.56,3.59,1.08.31,1.91.85,2.48,1.88,1.5,2.71,3.28,5.24,5.61,7.31,1.4,1.25,2.27,3,3.92,4,.31.19.46.65.68.99.57.93.33,1.68-.69,1.94-.44.11-.96.13-1.4.02-3.2-.81-6.48-.88-9.73-1.22-1.39-.15-2.8-.24-4.19-.42-2.45-.33-4.89-.69-7.37-.73-1.54-.03-3.06-.1-4.6-.3-1.52-.19-3.03-.62-4.58-.51-2.09.15-4.15-.33-6.2-.54-1.52-.16-3.1,0-4.58-.45-1.2-.37-2.41-.23-3.61-.2-1.14.03-1.64.6-1.74,1.79-.06.67-.08,1.32-.25,1.99-.41,1.61-.04,2.23,1.61,2.61,3.85.89,7.78,1.21,11.69,1.66,2.85.32,5.72.58,8.56.97,3.11.42,6.18,1.08,9.3,1.42,3.19.35,6.34.94,9.51,1.4,5.08.74,10.17,1.47,15.25,2.23,2.89.43,5.74.99,8.09,2.75,2.3,1.72,4.38,3.74,6.54,5.64.4.35.85.73.65,1.37-.22.73-.84.78-1.47.78-2.34.03-4.68.19-7.02.33-4.82.28-9.66.05-14.49.44-4.41.36-8.85-.19-13.28.38-3.11.4-6.29.27-9.43.36-6.04.17-12.07.79-18.12.52-1.68-.08-3.37.02-5.05-.02-.97-.03-1.86.25-2.75.55-1,.34-1.46,1.26-1.2,2.06.41,1.25-.45,2.99,1.32,3.75.06.03.13.05.19.06,1.13.15,2.25.4,3.38.44,4.89.18,9.79.13,14.69.33,11.62.47,23.25.01,34.88.39,9.32.3,18.68.51,28.02-.25,4.49-.37,7.97,2.08,11.33,4.78-.55.56-1.16.64-1.72.8-4.13,1.22-8.43,1.43-12.66,1.99-3.97.53-7.91,1.28-11.88,1.82-3.96.54-7.9,1.29-11.86,1.89-2.97.45-5.92.99-8.89,1.48-2.83.48-5.68.93-8.52,1.23-3.46.37-6.89.93-10.32,1.44-4.42.65-8.79,1.65-13.22,2.24-3.71.5-7.36,1.3-11.08,1.71-1.17.13-1.81.89-1.67,1.86.16,1.12.37,2.24.64,3.34.32,1.3.77,1.55,2.14,1.64.91.06,1.7-.35,2.57-.43,2.52-.25,5.03-.63,7.56-.87,3.39-.32,6.75-.85,10.14-1.19,1.32-.13,2.65-.3,3.98-.47,2.91-.36,5.82-.74,8.74-1.09,2.59-.31,5.18-.58,7.76-.91,2.65-.34,5.28-1,7.93-1.05,4.77-.1,9.45-.92,14.17-1.37,1.39-.13,2.8-.2,4.19-.42,2.97-.48,5.95-.83,8.94-1.12,2.59-.26,5.17-.6,7.75-.95,3.37-.46,6.73-1.01,10.11-1.44,3.38-.43,6.77-.74,10.15-1.16.89-.11,1.59.19,2.23.7.82.65.74,1.23-.22,1.61-.81.32-1.65.57-2.49.81-5.01,1.47-10.03,2.92-15.04,4.39-3.79,1.11-7.62,2.13-11.36,3.4-3.69,1.25-7.51,1.98-11.22,3.15-4.41,1.39-8.85,2.69-13.28,4.01-4.94,1.47-9.96,2.64-14.9,4.14-5.38,1.63-10.76,3.28-16.21,4.69-4.6,1.19-9.14,2.65-13.7,3.99-1.29.38-2.59.71-3.85,1.16-.76.27-1.69.71-1.54,1.63.16.97.16,2.01.66,2.92.6,1.11,1.24,1.48,2.46,1.22,1.37-.29,2.73-.63,4.1-.96,6.11-1.46,12.18-3.08,18.33-4.4,8.69-1.88,17.25-4.34,25.95-6.25,11.3-2.48,22.47-5.57,33.75-8.15,8.41-1.93,16.72-4.31,25.18-6.06.92-.19,1.8-.51,2.72-.71.48-.1,1.01-.01,1.2.5.25.66-.4.78-.78.95-2.2.99-4.41,1.97-6.65,2.88-4.22,1.73-8.35,3.63-12.57,5.37-5.71,2.35-11.3,4.96-16.97,7.41-5.17,2.24-10.43,4.28-15.55,6.63-6.03,2.76-12.26,5.06-18.25,7.91-4.42,2.1-9.06,3.66-13.45,5.84-2.58,1.28-5.29,2.29-7.95,3.42-4.32,1.84-8.63,3.7-12.96,5.51-.93.39-1.2.95-.86,1.88.36,1.01.69,2.03,1.21,2.98.46.83.94,1.02,1.95.65,6.53-2.44,13.1-4.77,19.65-7.16,3.9-1.43,7.81-2.84,11.72-4.23,6.44-2.28,12.72-5,19.13-7.39,5.15-1.92,10.25-3.99,15.41-5.88,4.96-1.82,9.83-3.9,14.81-5.73,6.16-2.26,12.18-4.91,18.37-7.12,2.21-.79,4.35-1.76,6.54-2.62.57-.23,1.3-.34,1.56.39.2.56-.31.96-.82,1.22-.78.39-1.59.75-2.33,1.2-4.91,3.03-9.91,5.91-14.88,8.84-8.31,4.9-16.56,9.9-24.86,14.82-6.11,3.63-12.24,7.2-18.36,10.82-4.96,2.93-9.9,5.89-14.87,8.8-3.93,2.3-7.97,4.43-11.83,6.84-3.02,1.88-6.17,3.53-9.14,5.5-1.1.73-1.62,1.59-1.72,3.1-.15,2.33,2,3.73,4.01,2.43,1.24-.8,2.56-1.48,3.87-2.15,8.09-4.12,16.18-8.23,24.28-12.34.36-.18.71-.38,1.07-.57,3.76-2.07,7.45-4.31,11.31-6.18,5.01-2.43,9.78-5.3,14.77-7.77,2.82-1.4,5.47-3.16,8.28-4.58,5.88-2.97,11.61-6.2,17.4-9.34,6.02-3.26,12.03-6.55,18.05-9.82.47-.26.96-.51,1.52-.45.32.03.72-.05.81.4.06.29-.16.48-.38.65-2.63,2.06-5.22,4.18-7.9,6.18-4.13,3.08-8.23,6.21-12.29,9.38-4.01,3.13-8.12,6.12-12.04,9.38-4.43,3.67-9.11,7.04-13.71,10.5-6.85,5.14-13.54,10.49-20.39,15.62-5.84,4.38-11.77,8.63-17.63,12.98-2.36,1.76-4.65,3.62-6.94,5.48-1.21.98-1.27,1.73-.42,2.9.4.54.8,1.08,1.18,1.63,1.17,1.68,1.78,1.86,3.42.6,5.05-3.9,10.55-7.13,15.66-10.93,3.17-2.35,6.5-4.5,9.78-6.7,5.4-3.62,10.78-7.26,16.03-11.1,2.14-1.57,4.39-3,6.74-4.6-.06,1.07.01,1.95-.16,2.77-.71,3.34-.96,6.74-1.58,10.09-.3,1.65-.36,3.32-1.84,4.69-5.34,4.91-10.13,10.4-15.62,15.18-2.99,2.6-5.56,5.64-8.59,8.22-2.34,2-4.4,4.33-6.58,6.51-2.76,2.76-2.75,3.56.06,6.21.15.14.28.29.44.42.87.68,1.75.74,2.54-.02,1.41-1.35,3.03-2.43,4.36-3.88,1.54-1.68,3.37-3.08,5.07-4.59,3.31-2.93,6.62-5.87,9.92-8.81,2.25-2.01,4.53-3.98,6.79-5.97.2-.18.41-.39.7-.28.42.15.38.54.32.85-.6,2.75-.83,5.55-1.28,8.31-.83,5.14-1.62,10.28-2.31,15.44-.13,1-.42,1.91-1.06,2.76-2.51,3.31-5.11,6.54-7.75,9.74-1.13,1.37-1.12,1.79.12,3.06.47.48.9,1.06,1.46,1.38,2.09,1.19,2.46,1.72,4.06-.67.11-.16.2-.34.3-.52.87.95,1.98,1.38,3.67,1.44,2.41.08,4.82.18,7.22.31,3.01.17,6.02.4,9.03.5,1.6.06,1.84.43,1.02,1.78-1.67,2.75-3.37,5.49-5.1,8.2-1.45,2.28-1.33,2.96.97,4.45.45.29.95.5,1.44.74,1.76.86,1.9.79,2.86-1.06.31-.59.7-1.14,1.08-1.7,2.15-3.16,4.41-6.26,6.43-9.49,1.1-1.75,2.13-3.1,4.42-2.11,3.7-.28,7.36.59,11.05.41,1.42-.07,2.81.06,4.23.64-.01.26.02.41-.03.52-2.96,6.62-5.88,13.25-8.89,19.84-1.68,3.66-1.49,4.32,2.26,5.86,1.88.77,2.15.68,3.11-1.2,1.34-2.64,2.56-5.33,3.83-8,1.53-3.21,3.33-6.3,4.89-9.5,1.03-2.11,1.91-4.3,3.03-6.37.71-1.32,1.26-1.64,2.6-1.26.94.26,1.86.31,2.79.26,3.3-.16,6.57.24,9.84.43,1.13.07,1.31.29.98,1.38-.59,1.92-1.29,3.81-1.89,5.72-1.83,5.81-3.35,11.72-5.3,17.49-.81,2.41-1.52,4.86-2.29,7.29-.23.73-.4,1.47.14,2.11.99,1.18,2.24,1.98,3.83,1.9,1.49-.08,2.14-1.29,2.64-2.47.63-1.48,1.14-3.01,1.66-4.54,1.32-3.87,2.61-7.75,3.91-11.63,1.65-4.89,3.79-9.61,5.11-14.62.52-1.98.92-2.41,2.96-2.2,3.21.33,6.43.36,9.64.37.2,0,.41.02.6.06,1.46.31,1.79.79,1.57,2.24-.53,3.43-1.35,6.79-1.67,10.28-.37,4.04-1.39,8.02-2.11,12.03-.75,4.21-1.51,8.41-2.21,12.62-.17,1.01-.62,2.01.15,3.08.82,1.13,2.06.87,3.1,1.17,1.56.45,2.4-.07,3.01-1.58.27-.68.44-1.41.59-2.12.24-1.18.4-2.37.65-3.54,1.46-6.79,3.02-13.56,4.24-20.41.68-3.82,1.6-7.59,2.46-11.37.37-1.63.46-1.57,2.2-1.67,3.5-.19,6.95.64,10.45.45,1.14-.06,1.54.54,1.36,1.71-.12.79-.36,1.55-.38,2.37-.05,2.61-.19,5.23-.27,7.83-.13,4.22-.65,8.44-.52,12.67.09,2.96-.67,5.87-.42,8.83,0,.07,0,.14-.01.2-.71,2.51-.24,5.08-.37,7.62-.03.56.08,1.1.55,1.45,1.27.96,2.78,1.16,4.22.8,1.24-.31,1.86-1.45,2.1-2.73.49-2.64.67-5.31.76-7.97.08-2.48.31-4.96.56-7.41.39-3.85.72-7.72,1.01-11.57.29-3.93.88-7.85.92-11.8.01-1.39.58-1.91,1.9-1.54,1.41.39,2.8.28,4.2.31,1.55.03,3.1-.07,4.64.04,2.69.18,2.75.29,2.98,2.98.01.13.01.27.03.4.46,3.18.77,6.38.74,9.59-.02,2.56.42,5.07.55,7.62.08,1.58.03,3.23.38,4.79.53,2.31.34,4.66.63,6.99.28,2.24.27,4.58.61,6.79.51,3.3-.41,3.25,3.61,3.23.27,0,.54,0,.81,0,2.19-.02,2.25-.13,2.34-2.25.11-2.56-.26-5.08-.4-7.62-.12-2.27.09-4.56-.26-6.82-.48-3.12-.28-6.29-.44-9.43-.24-4.61-.76-9.24-.54-13.88.07-1.55.06-1.51,1.61-1.61,3.84-.27,7.63.58,11.46.42.79-.03.99.44,1.13,1.11.41,2.03.85,4.06,1.33,6.07,1.78,7.48,3.2,15.03,4.69,22.57.45,2.29.92,4.59,1.53,6.84.53,1.94.94,2.01,4.42,1.36,1.61-.3,2.2-1.02,2.1-2.63-.02-.33-.12-.66-.18-.98-.07-.33-.16-.65-.2-.98-.52-4.78-1.63-9.47-2.18-14.26-.64-5.56-1.96-11.04-2.99-16.55-.34-1.8-.09-2.13,1.75-2.16,3.36-.05,6.68.67,10.05.41.54-.04,1.08.04,1.61-.01,1.14-.11,1.67.4,2.01,1.49.86,2.82,1.74,5.64,2.8,8.39,2.35,6.07,4.32,12.26,6.38,18.42.21.63.53,1.24.88,1.81.5.84,1.21,1.19,2.22.84,1.09-.37,2.11-.86,3.14-1.37.72-.35.94-.75.68-1.59-1.1-3.65-2.04-7.36-3.16-11-1.5-4.87-3.12-9.71-4.68-14.56-.58-1.82-.45-1.9,1.39-2.03,1.97-.14,3.85.51,5.81.45,2.69-.09,5.39.03,8.08-.04,1.23-.03,1.96.36,2.51,1.51,2.35,4.84,4.8,9.64,7.19,14.46.6,1.2,1.1,2.45,1.65,3.67.23.5.48.98,1.19.82,1.17-.26,2.39-.4,3.42-1.1,1.43-.97,1.83-1.77,1.1-3.34-2.11-4.57-4.05-9.22-6.31-13.73-.81-1.61-.47-2.14,1.37-2.25.67-.04,1.38-.14,2.01.02,2.33.59,4.68.31,7.02.35,2.69.05,5.39.05,8.08,0,1.13-.02,1.88.34,2.48,1.34.85,1.44,1.86,2.79,2.79,4.19,1.3,1.97,1.3,1.98,3.42,1.02.61-.28,1.21-.56,1.73-1.02,1.68-1.48,1.74-1.93.4-3.79-.08-.11-.16-.21-.23-.33-.8-1.3-.56-1.82.99-1.78,3.23.07,6.4-.55,9.58-.93,1.11-.13,2.27-.16,3.37-.47,1.67-.47,1.77-.68,1.45-2.4-.42-2.28.17-4.62-.64-7.23,1.35.56,1.83,1.34,2.34,2.11.51.78,1.23,1.06,2.06.47.92-.66,1.92-1.27,2.68-2.1,1.28-1.39,1.2-1.54-.08-2.95-.63-.69-1.2-1.44-1.78-2.17-1.67-2.09-3.36-4.17-4.98-6.3-.51-.67-.99-1.37-1-2.35-.05-3.81-.52-7.61-.71-11.41-.2-4.04-.7-8.08-.56-12.18.66.02,1.18.32,1.59.77,1.57,1.77,3.44,3.21,5.22,4.73,1.79,1.53,3.4,3.25,5.18,4.77,3.52,3,7,6.04,10.37,9.21,2.63,2.46,3.38,2.23,5.65-.11,1.64-1.69,1.59-2.23-.06-4.01-2.34-2.52-5.07-4.6-7.49-7.03-2.99-2.99-5.96-6-9.11-8.84-4.04-3.65-7.76-7.66-11.62-11.51-.43-.43-.9-.86-.84-1.54.22-2.43-.36-4.81-.41-7.22-.03-1.4.04-2.8-.32-4.2-.24-.95-.12-2.01-.06-3.01.06-1.03.39-1.17,1.21-.6,5.13,3.53,10.27,7.04,15.39,10.58,8.54,5.91,17.07,11.86,25.61,17.77,2.11,1.46,2.9,1.31,4.41-.82.46-.64.86-1.33,1.16-2.1.37-.97.08-1.57-.67-2.06-1.57-1.03-3.05-2.19-4.57-3.28-7.09-5.05-13.92-10.44-20.99-15.52-3.1-2.23-6.19-4.48-9.27-6.73-3.89-2.85-7.89-5.56-11.63-8.6-4.32-3.5-8.84-6.73-13.26-10.1-4.96-3.77-10.04-7.37-14.93-11.23-4.99-3.95-10.07-7.77-15.18-11.55-.86-.64-1.68-1.33-2.49-2.03-.25-.22-.46-.52-.25-.89.21-.35.52-.35.87-.19.61.27,1.26.47,1.84.79,7.3,4.01,14.63,7.97,22.05,11.75,2.15,1.09,4.38,2.05,6.46,3.27,4,2.36,8.23,4.27,12.31,6.46,7.05,3.77,14.2,7.36,21.28,11.08,5.06,2.66,10.18,5.2,15.26,7.82,2.56,1.32,5.12,2.66,7.67,3.99,5.11,2.67,10.28,5.21,15.37,7.91.78.42,1.61.54,2.24-.11.83-.87,1.63-1.83,1.83-3.07.18-1.16.13-2.23-1.2-2.88-1.74-.86-3.38-1.92-5.09-2.86-4.29-2.34-8.63-4.59-12.89-6.99-7.47-4.19-14.91-8.46-22.35-12.71-6.23-3.56-12.46-7.13-18.68-10.71-6.8-3.92-13.59-7.86-20.38-11.8-5.74-3.33-11.47-6.67-17.19-10.02-.93-.54-1.81-1.16-2.68-1.78-.36-.26-.91-.6-.6-1.11.28-.46.84-.26,1.29-.1.19.07.38.13.57.2,3.64,1.37,7.27,2.75,10.91,4.11,4.89,1.83,9.69,3.9,14.62,5.66,6.25,2.23,12.38,4.79,18.58,7.18,6.57,2.53,13.11,5.14,19.82,7.28,5.3,1.7,10.46,3.78,15.67,5.68,8.8,3.21,17.71,6.16,26.35,9.81.81.34,1.2.12,1.66-.53.57-.8.76-1.71,1.04-2.6.48-1.52.36-1.65-1.05-2.25-5.25-2.22-10.49-4.47-15.72-6.73-2.53-1.09-5.01-2.29-7.57-3.3-5.31-2.09-10.49-4.48-15.72-6.74-4.43-1.92-8.9-3.71-13.29-5.74-4.5-2.09-9.12-3.93-13.67-5.89-4.19-1.8-8.37-3.64-12.56-5.44-5.36-2.3-10.71-4.63-16.1-6.86-2.97-1.23-5.8-2.8-8.88-3.76-.92-.29-1.51-1.06-1.22-1.56.4-.66,1.07-.46,1.62-.3,2.44.7,4.9,1.32,7.4,1.83,2.69.54,5.32,1.36,7.98,2.04,9.34,2.39,18.69,4.69,28.06,6.97,6.56,1.6,13.04,3.51,19.68,4.84,6.88,1.38,13.67,3.24,20.52,4.81,5.6,1.28,11.24,2.42,16.85,3.65,3.2.7,6.39,1.44,9.58,2.21.57.14,1.03.17,1.49-.24,1.52-1.37,1.24-3.98-.55-4.98-1.18-.66-2.49-1.02-3.77-1.39-6.57-1.86-13.06-4-19.69-5.69-6.88-1.75-13.58-4.11-20.47-5.88-8.11-2.08-16.02-4.85-24.13-6.98-7.38-1.94-14.61-4.44-22-6.37-6.02-1.58-11.96-3.5-17.93-5.28-.51-.15-1-.37-1.49-.59-.26-.12-.41-.36-.35-.65.1-.46.42-.35.77-.32,3.26.29,6.52.6,9.78.92,3.86.38,7.7.84,11.55,1.23,1.4.14,2.78.39,4.18.5,2.73.21,5.44.58,8.16.92,2.71.34,5.42.74,8.14,1.06,2.72.32,5.45.55,8.17.89,3.71.47,7.39,1.27,11.11,1.46,4.15.21,8.25.8,12.36,1.26,4.45.5,8.88,1.06,13.32,1.61,4.44.55,8.89,1.02,13.32,1.6,3.97.52,7.96.84,11.9,1.61,1.98.39,2.7-.12,3.27-2.04.17-.58.32-1.16.45-1.75.45-2.02-.21-2.94-2.3-3.01-1.55-.05-3.04-.42-4.56-.67-2.64-.43-5.26-.94-7.9-1.35-3.17-.49-6.35-.87-9.52-1.35-3.04-.46-6.06-.98-9.09-1.48-3.69-.62-7.41-.93-11.11-1.53-6.79-1.1-13.54-2.41-20.34-3.43-6.2-.93-12.38-2.04-18.62-2.75-3.05-.35-6.06-.97-9.09-1.45-2.97-.47-5.94-.9-8.91-1.36-2.57-.4-5.14-.82-7.71-1.25-.62-.1-.93-.5-.95-1.12-.02-.72.34-1.15,1.06-1.22.4-.04.81-.03,1.21-.03,2.22,0,4.44.02,6.66-.02,16.94-.24,33.89.35,50.84-.34,10.34-.42,20.7.16,31.04-.43,3.49-.2,7-.02,10.5-.04,2.88-.01,5.76.1,8.64-.37.99-.16,1.57-.54,1.92-1.48.91-2.44-.74-4.91-3.54-4.98ZM153.63,322.54c5.38-3.63,10.5-7.65,15.84-11.34,1.16-.81,2.29-1.9,3.94-1.72.03.73-.53.98-.88,1.33-3.55,3.58-7.15,7.11-10.68,10.72-1.02,1.05-2.16,1.7-3.56,2.12-2.92.89-5.89,1.57-8.98,2.02,1.43-1.05,2.84-2.15,4.31-3.14ZM346.18,220.26c-2.51,1.81-5.06,3.63-7.14,5.84-4.17,4.43-8.65,8.59-12.01,13.78-3,4.63-5.75,9.36-8.15,14.31-2.24,4.62-3.59,9.53-4.57,14.53-.79,4.07-1.34,8.2-1.22,12.36.15,5.09.96,10.1,2.06,15.07.76,3.42,1.94,6.69,3.33,9.89.99,2.29,2.8,3.98,4.68,5.46,1.74,1.38,3.28,2.96,4.98,4.38,4.41,3.7,8.71,7.55,12.99,11.4,2.54,2.29,5.12,4.54,7.73,6.74,3.12,2.63,6.07,5.46,9.35,7.92,1.71,1.28,3.2,2.86,4.81,4.28.71.63,1.03,1.35.96,2.31-.23,3.16.34,6.29.47,9.43.18,4.27.55,8.54.78,12.82.22,4.07.53,8.14.8,12.21.28,4.14.55,8.28.81,12.42.28,4.48.66,8.94.76,13.43,0,.07.02.14,0,.2-.12.65.75,1.4.09,1.87-.61.43-1.5.51-2.27.66-.45.09-.94.02-1.41.02-10.57,0-21.14.2-31.7-.09-5.03-.14-10.09.03-15.09-.4-3.83-.33-7.67.04-11.46-.37-6.04-.64-12.1.01-18.12-.43-3.63-.27-7.26-.03-10.85-.41-3.16-.34-6.31-.09-9.45-.36-6.67-.57-13.36-.48-20.03-.97-2.21-.16-4.43,0-6.62-.25-4.13-.48-8.31,0-12.42-.74-.13-.02-.27-.02-.4-.02-4.51.28-9-.22-13.47-.53-3.67-.26-7.39.18-11.01-.65-.13-.03-.27-.04-.4-.03-3.63.26-7.23-.44-10.85-.41-3.76.03-7.5-.4-11.25-.52-2.4-.08-4.86.06-7.21-.36-3.47-.63-6.99.17-10.41-.72-.13-.03-.27-.02-.4-.02-4.5.23-8.97-.65-13.48-.42-4.16.21-8.3-.49-12.47-.49-1.84,0-3.73-.3-5.6-.31-.82,0-1.15-.21-1.03-1.2.35-2.85.53-5.71,1.03-8.55.56-3.15.93-6.34,1.39-9.51.48-3.3.96-6.6,1.46-9.9.44-2.9.99-5.79,1.35-8.71.48-3.84,1.38-7.62,1.51-11.52.08-2.19.58-4.36.89-6.55.23-1.58.48-3.17.67-4.75.17-1.43.46-1.95,1.9-2.18,4.09-.68,8.05-1.95,12.15-2.65,2.23-.38,4.39-1.21,6.56-1.88,7.11-2.18,14.21-4.41,21.07-7.3,6.75-2.84,13.4-5.84,19.64-9.76,5.37-3.37,10.43-7.07,14.81-11.67,4.58-4.8,8.07-10.28,9.35-16.84,1.72-8.81-.14-16.73-7.1-22.85-4.05-3.56-8.88-5.69-14.19-6.76-2.61-.53-5.22-.39-7.83-.36-1.57.02-3.06-.3-4.57-.61-1.9-.4-3.19-1.58-4.08-3.3-.79-1.53-1.07-3.32-2.54-4.51-.96-.78-1.95-1.38-3.14-1.71-4.33-1.18-8.76-1.88-13.12-2.86-7.6-1.7-14.92-4.23-22.08-7.33-3.39-1.46-6.79-2.88-10.06-4.57-4.34-2.24-8.71-4.44-12.86-7.03-7.05-4.4-14.02-8.93-20.6-14-2.92-2.24-5.6-4.79-8.45-7.12-4.27-3.48-8.3-7.21-12.28-11.01-2.18-2.08-4.28-4.25-6.43-6.34-1.93-1.87-3.5-4.06-5.57-5.77-1.72-1.42-2.95-3.3-4.46-4.92-1.63-1.75-1.6-3.72-.32-5.26.88-1.06,2.13-1.03,3.28-1.3.51-.12,1.07-.03,1.61-.03,16.96,0,33.92,0,50.88,0s33.92-.03,50.88.05c1.93,0,3.13-.57,3.65-2.37,1.01-3.48,3.46-4.49,6.81-4.16,1.33.13,2.66-.03,3.99-.36,1.33-.32,2.02-1.05,2.43-2.36.48-1.56.34-3.18.71-4.76.74-3.15,2.6-4.89,5.81-5.03.4-.02.81,0,1.21,0,66.7,0,133.4,0,200.1,0,2.09,0,4.08.23,5.94,1.44,2.96,1.92,4.51,5.95,3.71,9.32-1.2,5.08-2.59,10.11-3.67,15.22-.66,3.13-1.27,6.29-1.79,9.45-.97,5.82-4.05,9.88-9.61,11.82-6.01,2.11-12.11,3.97-18.16,5.99-9.37,3.12-17.97,7.71-25.98,13.5Z"/>
    <path class="st0" d="M247.65,0C110.87,0,0,110.87,0,247.65s110.87,247.65,247.65,247.65,247.65-110.87,247.65-247.65S384.42,0,247.65,0ZM247.24,484.36c-130.73,0-236.71-105.98-236.71-236.71S116.51,10.93,247.24,10.93s236.71,105.98,236.71,236.71-105.98,236.71-236.71,236.71Z"/>
  </g>
  <g>
    <path class="st0" d="M643.81,448.38v-99.35h-12.02v-12.82h38.46v12.82h-12.02v99.35h-14.42Z"/>
    <path class="st0" d="M704.21,448.38l11.7-112.17h27.88l11.7,112.17h-14.26l-2.72-28.84h-17.31l-2.72,28.84h-14.26ZM722.32,407.04h15.06l-5.45-58.33h-4.17l-5.45,58.33Z"/>
    <path class="st0" d="M801.48,448.38v-99.35h-12.02v-12.82h38.46v12.82h-12.02v99.35h-14.42Z"/>
    <path class="st0" d="M866.05,448.38v-12.82h20.99l2.72-17.63h-16.18l-10.09-81.72h14.58l7.05,68.9h6.25l7.21-68.9h14.58l-14.58,112.17h-32.53Z"/>
    <path class="st0" d="M1132.36,448.38v-112.17h14.42v48.87h5.93l12.02-48.87h14.74l-13.46,52.88,15.86,59.29h-14.9l-12.98-50.47h-7.21v50.47h-14.42Z"/>
    <path class="st0" d="M1219.2,435.88v-87.17l12.82-12.82h19.23l12.82,12.82v87.17l-12.82,12.82h-19.23l-12.82-12.82ZM1233.95,349.03v86.53h15.38v-86.53h-15.38Z"/>
    <path class="st0" d="M1306.05,425.95v-67.3l12.82-12.82h14.42v-9.61h14.42v9.61h14.42l12.82,12.82v67.3l-12.82,12.82h-14.42v9.61h-14.42v-9.61h-14.42l-12.82-12.82ZM1320.47,358.65v67.3h12.82v-67.3h-12.82ZM1360.53,358.65h-12.82v67.3h12.82v-67.3Z"/>
    <path class="st0" d="M1416.93,448.38v-112.17h32.05v12.82h-17.63v35.25h16.82v12.82h-16.82v38.46h19.23v12.82h-33.65Z"/>
  </g>
  <g>
    <path class="st0" d="M731.37,148.02l33.2-124.49h-61.86l-19.91,82.45V23.53h-58.94v263.07h58.94v-96.88l24.54,96.88h62.61l-38.58-138.58ZM687.57,171.15h-13.98v106.26h-40.54V32.73h40.54v102.76h11.53l24.82-102.76h42.64l-30.76,115.35,36,129.33h-43.34l-26.92-106.26Z"/>
    <g>
      <path class="st0" d="M815.5,241.05h30.76V69.08h-30.76v171.97ZM824.7,78.28h12.36v153.57h-12.36V78.28Z"/>
      <path class="st0" d="M859.51,22.83h-57.25l-37.55,37.54v189.38l37.55,37.55h57.25l37.54-37.55V60.38l-37.54-37.54ZM887.85,245.95l-32.15,32.16h-49.63l-32.16-32.16V64.19l32.16-32.15h49.63l32.15,32.15v181.76Z"/>
    </g>
    <path class="st0" d="M924.05,23.53l-30.44,263.07h58.81l22.02-209.72h3.49v209.72h58.94V23.53h-112.82ZM1027.67,277.4h-40.55V67.68h-20.97l-22.02,209.72h-40.2l28.31-244.68h95.42v244.68Z"/>
    <g>
      <path class="st0" d="M1094.78,243.15h32.15v-125.13h-32.15v125.13ZM1103.97,127.21h13.76v106.74h-13.76v-106.74Z"/>
      <path class="st0" d="M1139.13,74.57h-35.15V23.53h-58.94v263.07h94.1l37.55-37.55V112.11l-37.55-37.54ZM1167.48,245.25l-32.16,32.16h-81.09V32.73h40.55v51.04h40.54l32.16,32.15v129.33Z"/>
    </g>
    <path class="st0" d="M1254.05,23.53v100.67h-13.76V23.53h-58.94v263.07h58.94v-107.66h13.76v107.66h58.94V23.53h-58.94ZM1303.8,277.4h-40.55v-107.66h-32.16v107.66h-40.54V32.73h40.54v100.67h32.16V32.73h40.55v244.68Z"/>
    <g>
      <path class="st0" d="M1403.06,66.98h-32.16v97.87h32.16v-97.87ZM1393.86,155.66h-13.76v-79.47h13.76v79.47Z"/>
      <path class="st0" d="M1358.71,23.53l-37.54,37.55v111.74l19.68,20.01-30.89,93.78h63.42l20.49-74.68v74.68h58.94V23.53h-94.1ZM1443.61,277.4h-40.55v-78.99h-15.03l-21.68,78.99h-43.69l28.66-87.03-20.97-21.32v-104.16l32.15-32.16h81.1v244.68Z"/>
    </g>
  </g>
  <polygon class="st0" points="1049.51 376.03 1040.4 366.92 1021.91 385.41 1003.42 366.92 994.31 376.03 1012.8 394.52 994.31 413.01 1003.42 422.12 1021.91 403.63 1040.4 422.12 1049.51 413.01 1031.02 394.52 1049.51 376.03"/>
</svg>