<svg width="230" height="32" viewBox="0 0 230 32" fill="none" xmlns="http://www.w3.org/2000/svg">
<path fill-rule="evenodd" clip-rule="evenodd" d="M217.204 23.7982H215.32V18.3089H217.301C219.044 18.3089 220.066 19.0934 220.066 21.0695C220.066 23.0467 218.937 23.7982 217.204 23.7982ZM225.76 9.86417V27H229.828V9.86417H225.76ZM211.263 9.86417V27H217.441C221.433 27 224.264 24.9589 224.264 20.9304C224.264 17.1162 221.735 15.1071 217.505 15.1071H215.32V9.86417H211.263ZM208.874 13.066V9.86417H195.259V13.066H200.038V27H204.096V13.066H208.874ZM186.876 24.1322C184.722 24.1322 183.626 22.4025 183.626 18.448C183.626 14.4628 184.788 12.7331 187.08 12.7331C189.297 12.7331 190.384 14.4628 190.384 18.4161C190.384 22.4025 189.222 24.1322 186.876 24.1322ZM183.324 9.86417H179.568V31.9316H183.626V24.9909C184.658 26.5165 186.155 27.3341 187.898 27.3341C191.848 27.3341 194.581 24.1744 194.581 18.4161C194.581 12.6897 191.923 9.53122 188.102 9.53122C186.187 9.53122 184.615 10.4126 183.529 12.0774L183.324 9.86417ZM172.239 22.9076C171.722 23.659 170.765 24.2714 169.333 24.2714C167.633 24.2714 166.771 23.3158 166.771 21.854C166.771 19.9099 168.171 19.2006 171.658 19.2006H172.239V22.9076ZM176.296 15.3112C176.296 11.1641 174.176 9.59507 169.882 9.59507C167.192 9.59507 165.072 10.4446 163.844 11.1641V14.5381C164.931 13.7103 167.321 12.83 169.409 12.83C171.346 12.83 172.239 13.5062 172.239 15.3545V16.2998H171.582C165.372 16.2998 162.617 18.3523 162.617 21.8221C162.617 25.2919 164.727 27.2372 167.87 27.2372C170.258 27.2372 171.281 26.4527 172.067 25.6363H172.239C172.271 26.0764 172.41 26.6568 172.541 27H176.501C176.36 25.6043 176.296 24.2075 176.296 22.8107V15.3112ZM157.635 27H162.446L154.018 14.57L161.66 3.33162H157.462L150.122 14.2257V3.33162H146V27H150.122V15.8916L157.635 27Z" fill="white"/>
<path d="M121 0C128.069 0 133.8 5.73053 133.8 12.7998C133.8 16.3333 132.369 19.5326 130.053 21.8486C127.737 24.1658 122.281 27.5193 121.961 31.04C121.912 31.5679 121.53 32 121 32C120.471 31.9999 120.088 31.5679 120.04 31.04C119.72 27.5193 114.263 24.1658 111.947 21.8486C109.632 19.5327 108.2 16.3332 108.2 12.7998C108.2 5.7306 113.931 0.000108386 121 0ZM121.036 8.34375C118.555 8.34375 116.544 10.3557 116.544 12.8369C116.544 15.317 118.555 17.3291 121.036 17.3291C123.517 17.329 125.528 15.3169 125.528 12.8369C125.528 10.3557 123.517 8.34381 121.036 8.34375Z" fill="white"/>
<path d="M11.7 6.20402H9.84723C6.45042 6.20402 4.66632 7.90838 4.66632 10.4306C4.66632 13.2939 5.9015 14.6231 8.44053 16.3275L10.5333 17.725L4.4948 26.6895H0L5.42111 18.6793C2.29883 16.4637 0.54892 14.3164 0.54892 10.6692C0.54892 6.10188 3.73987 2.99999 9.8129 2.99999H15.8516V26.6895H11.7V6.20402Z" fill="white"/>
<path d="M45.4273 23.4853H39.6631C40.7953 20.8949 41.1042 16.2251 41.1042 13.2597V12.7484H45.4273V23.4853ZM49.5102 9.5444H37.6045V11.0101C37.6045 15.2025 37.3299 20.6222 35.8889 23.4853H34.6194V30.6094H38.3936V26.6895H47.5546V30.6094H51.3288V23.4853H49.5102V9.5444Z" fill="white"/>
<path d="M28.8209 16.3274H23.3655V9.5444H19.2826V26.6894H23.3655V19.5314H28.8209V26.6894H32.9039V9.5444H28.8209V16.3274Z" fill="white"/>
<path d="M92.0212 12.4077C93.5994 12.4077 95.1435 12.953 95.9669 13.4643V10.0216C95.1091 9.54441 93.5994 9.20365 91.5753 9.20365C86.36 9.20365 83.6495 12.919 83.6495 18.1339C83.6495 23.8604 86.2912 27.0304 91.7466 27.0304C93.6339 27.0304 94.9719 26.6895 95.9669 25.9738V22.6673C94.9376 23.3832 93.7024 23.8262 91.9868 23.8262C89.0704 23.8262 87.8697 21.5767 87.8697 18.0318C87.8697 14.3165 89.345 12.4077 92.0212 12.4077Z" fill="white"/>
<path d="M83.1004 9.5444H78.9831L73.219 17.4522V9.5444H69.1359V26.6895H73.219V18.2702L79.2575 26.6895H83.8895L77.3362 17.4522L83.1004 9.5444Z" fill="white"/>
<path d="M62.2396 16.566H56.5441C56.647 13.8392 57.6419 12.4077 59.5977 12.4077C61.622 12.4077 62.2396 14.0778 62.2396 16.2251V16.566ZM59.6664 9.20349C54.6913 9.20349 52.324 12.987 52.324 18.1679C52.324 24.1331 55.2746 27.0304 60.4898 27.0304C63.0974 27.0304 65.0188 26.3486 66.2197 25.5305V22.2243C64.9501 23.0763 62.823 23.8262 60.8329 23.8262C57.8479 23.8262 56.7156 22.4289 56.5441 19.5656H66.3912V17.4182C66.3912 11.4532 63.7493 9.20349 59.6664 9.20349Z" fill="white"/>
</svg>
