<svg width="1639" height="770" viewBox="0 0 1639 770" fill="none" xmlns="http://www.w3.org/2000/svg">
<path d="M1273.78 118.07L1253.06 166.204L1319.15 113.885L1273.78 118.07Z" fill="#FFDD55"/>
<path d="M424.502 153.883L436.904 179.645L395.547 152.412L424.502 153.883Z" fill="#FFDD55"/>
<path d="M1517.35 535.195L1494.31 550.688L1513.43 521.566L1517.35 535.195Z" fill="#FFDD55"/>
<path d="M1476.87 764.836L1460.99 754.78L1485.57 759.558L1476.87 764.836Z" fill="#FFE373"/>
<path d="M1005.39 61.0511L1030.01 15.619L1011.28 0.511565L1005.39 61.0511Z" fill="#B49D3A"/>
<path d="M1583.32 675.796L1630.35 670.712L1628.69 644.266L1583.32 675.796Z" fill="#B49D3A"/>
<path d="M53.3475 566.311L19.1664 533.61L0.00529662 551.912L53.3475 566.311Z" fill="#B49D3A"/>
<path d="M164.787 427.182L149.751 406.01L138.305 412.07L164.787 427.182Z" fill="#B49D3A"/>
<path d="M120.897 687.919L78.5823 684.288L74.2174 705.366L120.897 687.919Z" fill="#FFDD55"/>
</svg>
