<svg width="241" height="315" viewBox="0 0 241 315" fill="none" xmlns="http://www.w3.org/2000/svg">
<g clip-path="url(#clip0_0_2507)">
<path d="M124.642 134.311C76.9173 126.067 36.7476 127.947 34.9249 138.499L13.5498 262.247C11.7255 272.808 48.909 288.049 96.6618 296.297C144.415 304.545 184.556 302.661 186.38 292.1L207.755 168.352C209.578 157.8 172.366 142.554 124.642 134.311Z" fill="#E5E5E5" stroke="black" stroke-width="3" stroke-miterlimit="10"/>
<path d="M118.039 172.549C165.764 180.792 205.932 178.918 207.755 168.361C209.579 157.804 172.368 142.564 124.642 134.32C76.916 126.076 36.7484 127.951 34.9249 138.508C33.1015 149.064 70.3127 164.305 118.039 172.549Z" fill="#FFDD55" stroke="black" stroke-width="3" stroke-miterlimit="10"/>
<path d="M117.733 174.312C169.844 183.313 213.702 181.263 215.694 169.733C217.686 158.202 177.056 141.558 124.945 132.557C72.8341 123.556 28.9753 125.606 26.9836 137.137C24.992 148.667 65.6216 165.311 117.733 174.312Z" fill="#FFDD55" stroke="black" stroke-width="3" stroke-miterlimit="10"/>
<path d="M19.2852 229.054C17.4609 239.615 54.646 254.846 102.399 263.095C150.152 271.343 190.291 269.468 192.116 258.907L186.382 292.1C186.382 292.1 182.998 302.47 154.937 301.381C154.937 301.381 123.634 302.694 78.0896 292.623C78.0896 292.623 15.9466 277.392 13.1966 264.303L19.2852 229.054Z" fill="#FFDD55" stroke="black" stroke-width="3" stroke-miterlimit="10"/>
<path d="M198.714 220.706C196.89 231.268 156.748 233.152 108.996 224.903C61.2427 216.655 24.0593 201.415 25.8836 190.853L33.5391 146.533L206.37 176.386L198.714 220.706Z" fill="#9E8A35" stroke="black" stroke-width="3" stroke-miterlimit="10"/>
<path d="M162.622 209.481L174.465 226.715C174.691 227.044 174.988 227.318 175.335 227.516C175.681 227.713 176.068 227.83 176.466 227.857C176.865 227.883 177.264 227.819 177.634 227.67C178.004 227.52 178.335 227.289 178.602 226.993L202.104 201.074L182.788 179.82L162.622 209.481Z" fill="#FFDD55" stroke="black" stroke-width="3" stroke-miterlimit="10"/>
<path d="M137.274 186.787C132.463 188.084 128.165 190.827 124.962 194.644C119.773 200.681 115.684 205.802 110.471 204.552C103.805 202.944 99.4857 190.845 95.4658 185.276C91.446 179.706 83.4736 171.551 75.64 179.909C68.5063 187.475 61.785 197.433 55.6208 189.998C49.4566 182.563 51.4605 153.533 39.3152 166.332C32.6236 173.362 28.2341 171.788 25.6472 168.943C24.5856 167.708 23.8173 166.249 23.3996 164.675C22.982 163.101 22.9258 161.453 23.2354 159.854L27.1593 137.138C30.4756 117.939 124.978 132.543 124.978 132.543C216.551 148.361 215.587 169.685 215.587 169.685L211.663 192.402C211.421 194.012 210.816 195.547 209.895 196.89C208.973 198.233 207.758 199.349 206.342 200.155C202.951 201.967 198.259 201.973 194.342 193.11C187.166 176.973 179.315 204.993 171.042 209.935C162.769 214.877 153.631 201.101 149.64 191.545C147.197 185.84 141.928 185.649 137.274 186.787Z" fill="white" stroke="black" stroke-width="3" stroke-miterlimit="10"/>
<path d="M132.11 91.0842C126.44 90.1543 121.363 87.031 117.977 82.389C117.874 82.2106 117.715 82.0704 117.526 81.9893C117.336 81.9082 117.125 81.8904 116.925 81.9387C116.724 81.9871 116.545 82.0988 116.413 82.2574C116.281 82.416 116.204 82.6129 116.194 82.8189L105.719 143.462C105.324 145.744 107.424 151.021 121.342 153.425C135.26 155.829 139.008 151.563 139.402 149.281L149.877 88.637C149.936 88.4394 149.929 88.2281 149.859 88.0345C149.788 87.8408 149.656 87.6754 149.483 87.5626C149.311 87.4498 149.106 87.3958 148.9 87.4087C148.695 87.4215 148.499 87.5005 148.341 87.6338C143.594 90.8709 137.764 92.1103 132.11 91.0842Z" fill="#E5E5E5" stroke="black" stroke-width="3" stroke-miterlimit="10"/>
<path d="M154.304 63.0071C152.458 73.6911 143.419 81.0447 134.121 79.4386C124.823 77.8326 118.775 67.8729 120.62 57.1889C122.466 46.5049 144.48 19.4648 144.48 19.4648C144.48 19.4648 156.149 52.323 154.304 63.0071Z" fill="#FFE373" stroke="black" stroke-width="3" stroke-miterlimit="10"/>
<path d="M51.9629 210.556L68.4534 253.56C68.5594 253.837 68.7247 254.086 68.9377 254.291C69.1507 254.497 69.4062 254.653 69.6861 254.748C69.9661 254.844 70.2636 254.877 70.5577 254.845C70.8518 254.813 71.1352 254.716 71.3879 254.563L116.05 227.181C116.05 227.181 73.1089 218.287 51.9629 210.556Z" fill="#CDB241" stroke="black" stroke-width="3" stroke-miterlimit="10"/>
<path d="M126.873 266.564L155.582 298.987C155.858 299.289 156.195 299.528 156.57 299.689C156.946 299.85 157.352 299.929 157.761 299.921C158.17 299.912 158.572 299.817 158.941 299.64C159.31 299.464 159.636 299.21 159.899 298.897L189.239 262.79C189.239 262.79 181.215 273.038 126.873 266.564Z" fill="#9E8A35" stroke="black" stroke-width="3" stroke-miterlimit="10"/>
</g>
<defs>
<clipPath id="clip0_0_2507">
<rect width="194.366" height="285.296" fill="white" transform="translate(49.209 0.0366211) rotate(9.80005)"/>
</clipPath>
</defs>
</svg>
