<svg width="375" height="366" viewBox="0 0 375 366" fill="none" xmlns="http://www.w3.org/2000/svg">
<g clip-path="url(#clip0_0_2649)">
<path d="M153.569 162.592L300.951 29.9116C300.998 29.8697 301.055 29.8405 301.117 29.8266C301.179 29.8127 301.243 29.8146 301.304 29.8321C301.364 29.8497 301.42 29.8822 301.465 29.9269C301.509 29.9715 301.542 30.0267 301.56 30.0874L342.341 173.851L201.421 328.939C201.371 328.995 201.307 329.037 201.235 329.059C201.164 329.082 201.088 329.085 201.015 329.068C200.942 329.05 200.875 329.014 200.821 328.962C200.767 328.91 200.728 328.844 200.708 328.772L153.569 162.592Z" fill="#FFE373" stroke="black" stroke-width="3" stroke-miterlimit="10"/>
<path d="M17.9437 136.143L301.209 29.5961C301.209 29.5961 301.284 29.6382 301.228 29.6646L153.569 162.593C153.569 162.593 77.2374 184.911 17.7251 137.494C17.6237 137.403 17.5467 137.288 17.5014 137.159C17.456 137.031 17.4436 136.893 17.4654 136.758C17.4871 136.624 17.5423 136.497 17.6259 136.389C17.7095 136.282 17.8188 136.197 17.9437 136.143Z" fill="white" stroke="black" stroke-width="3" stroke-miterlimit="10"/>
<path d="M63.6104 302.232L17.2816 138.908C17.2404 138.767 17.2457 138.615 17.2969 138.476C17.348 138.338 17.4422 138.219 17.5657 138.138C17.6892 138.057 17.8354 138.017 17.9829 138.026C18.1305 138.034 18.2715 138.089 18.3853 138.183C27.8347 146.07 75.311 181.21 153.58 162.632L200.669 328.635C200.738 328.875 200.718 329.132 200.61 329.358C200.503 329.583 200.316 329.761 200.086 329.857C192.327 332.808 131.183 353.756 63.6104 302.232Z" fill="#9E8A35" stroke="black" stroke-width="3" stroke-miterlimit="10"/>
<path d="M167.851 212.94L314.818 76.8258L328.963 126.693L184.182 270.514L167.851 212.94Z" fill="#FFDD55" stroke="black" stroke-width="3" stroke-miterlimit="10"/>
<path d="M119.032 143.289C136.947 138.207 147.348 119.555 142.263 101.628C137.178 83.701 118.532 73.2881 100.618 78.3699C82.7026 83.4517 72.302 102.104 77.3872 120.031C82.4723 137.957 101.118 148.37 119.032 143.289Z" fill="#C0272D" stroke="black" stroke-width="3" stroke-miterlimit="10"/>
<path d="M104.082 90.585C104.082 90.585 93.1729 68.1713 112.994 52.9858" stroke="white" stroke-width="3" stroke-miterlimit="10"/>
<path d="M122.857 330.472L44.5702 233.137C44.4627 233.013 44.387 232.864 44.3494 232.704C44.3119 232.544 44.3137 232.377 44.3548 232.218C44.3958 232.059 44.4748 231.912 44.585 231.79C44.6952 231.668 44.8333 231.575 44.9875 231.518L158.116 185.215C158.274 185.15 158.447 185.129 158.615 185.156C158.784 185.182 158.942 185.255 159.072 185.366C159.202 185.477 159.298 185.622 159.351 185.784C159.404 185.946 159.411 186.12 159.371 186.286L124.754 330.05C124.699 330.241 124.593 330.414 124.449 330.55C124.304 330.686 124.125 330.781 123.931 330.824C123.737 330.867 123.535 330.857 123.346 330.795C123.157 330.733 122.988 330.622 122.857 330.472Z" fill="#FFDD55" stroke="black" stroke-width="3" stroke-miterlimit="10"/>
<path d="M191.327 70.93L182.555 136.534L299.471 31.2507C299.546 31.1805 299.594 31.0866 299.608 30.9849C299.622 30.8831 299.6 30.7797 299.547 30.692C299.494 30.6043 299.412 30.5376 299.315 30.5031C299.218 30.4687 299.113 30.4685 299.016 30.5028L191.327 70.93Z" fill="#E5E5E5" stroke="black" stroke-width="3" stroke-miterlimit="10"/>
<path d="M248.204 79.0898L305.258 85.6771L179.047 202.568L245.531 80.9469C245.7 80.3802 246.057 79.8879 246.543 79.5506C247.028 79.2132 247.614 79.0508 248.204 79.0898Z" fill="#FFDD55" stroke="black" stroke-width="3" stroke-miterlimit="10"/>
<path d="M228.639 298.997L222.028 232.917L184.181 270.514L200.887 327.136C200.927 327.325 201.021 327.499 201.157 327.636C201.293 327.774 201.465 327.87 201.654 327.913C201.843 327.956 202.039 327.945 202.221 327.88C202.404 327.815 202.563 327.699 202.682 327.546L228.639 298.997Z" fill="#E5E5E5" stroke="black" stroke-width="3" stroke-miterlimit="10"/>
</g>
<defs>
<clipPath id="clip0_0_2649">
<rect width="306.232" height="293.311" fill="white" transform="translate(0 83.5693) rotate(-15.8366)"/>
</clipPath>
</defs>
</svg>
