<svg width="1639" height="769" viewBox="0 0 1639 769" fill="none" xmlns="http://www.w3.org/2000/svg">
<path d="M1273.78 117.558L1253.06 165.693L1319.15 113.374L1273.78 117.558Z" fill="#FFDD55"/>
<path d="M424.502 153.371L436.904 179.133L395.547 151.901L424.502 153.371Z" fill="#FFDD55"/>
<path d="M1517.35 534.684L1494.31 550.177L1513.43 521.054L1517.35 534.684Z" fill="#FFDD55"/>
<path d="M1476.87 764.324L1460.99 754.269L1485.57 759.046L1476.87 764.324Z" fill="#FFE373"/>
<path d="M1005.39 60.5396L1030.01 15.1075L1011.28 9.05334e-05L1005.39 60.5396Z" fill="#B49D3A"/>
<path d="M1583.32 675.284L1630.35 670.201L1628.69 643.755L1583.32 675.284Z" fill="#B49D3A"/>
<path d="M53.3494 565.799L19.1684 533.098L0.00724975 551.401L53.3494 565.799Z" fill="#B49D3A"/>
<path d="M164.789 426.671L149.753 405.498L138.307 411.559L164.789 426.671Z" fill="#B49D3A"/>
<path d="M120.899 687.407L78.5843 683.776L74.2193 704.854L120.899 687.407Z" fill="#FFDD55"/>
</svg>
